<svg width="1444" height="1903" viewBox="0 0 1444 1903" fill="none" xmlns="http://www.w3.org/2000/svg">
<path d="M530.992 314.051L635.238 276.488L650.621 236.141L332.816 238.949L530.992 314.051Z" fill="#F9AB17"/>
<path d="M580.09 289.66L650.621 236.141L332.816 238.949" fill="#F4811F"/>
<path d="M612.273 281.43L743.347 271.059L780.16 255.07L570.758 41.2812L612.273 281.43Z" fill="#F9AB17"/>
<path d="M687.578 274.059L780.16 255.07L570.758 41.2812" fill="#F4811F"/>
<path d="M579.836 294.789L722.426 262.879L739.773 250.301L421.898 106L579.836 294.789Z" fill="#F9AB17"/>
<path d="M655.797 276.199L741.379 249.988L421.898 106" fill="#F4811F"/>
<path d="M911.269 314.051L807.097 276.488L791.64 236.141L1110.47 238.949L911.269 314.051Z" fill="#F4811F"/>
<path d="M862.172 289.66L791.64 236.141L1110.47 238.949" fill="#F9AB17"/>
<path d="M830.023 281.43L698.949 271.059L662.136 255.07L871.504 41.2812L830.023 281.43Z" fill="#F4811F"/>
<path d="M755.961 271.949L662.136 255.07L871.504 41.2812" fill="#F9AB17"/>
<path d="M865.742 294.391L719.801 262.879L703.433 250.301L1020.36 106L865.742 294.391Z" fill="#F4811F"/>
<path d="M787.449 275.672L700.918 249.988L1020.36 106" fill="#F9AB17"/>
<path d="M804.289 267.898L773.746 262.09L742.324 259.102L714.914 258.922L683.789 260.82L638.008 270.07L721.551 3.92188" fill="#F4811F"/>
<path d="M721.039 258.699L678.539 261.559L638.008 269.93L721.551 3.92188L721.039 258.699Z" fill="#F9AB17"/>
<path d="M805.019 1192.25C804.035 1191.92 802.976 1191.61 801.886 1191.35C792.187 1188.89 781.035 1188.54 779.648 1192.99C778.558 1196.58 786.136 1201.47 795.836 1203.96C798.531 1204.68 801.156 1205.16 803.633 1205.46C803.926 1205.53 804.218 1205.35 804.254 1204.96C804.472 1202.82 805.238 1195.05 805.492 1192.92C805.566 1192.46 805.164 1192.32 805.019 1192.25ZM870.812 1196.35C873.254 1195.76 874.234 1195.38 876.754 1194.16C884.406 1190.49 891.258 1184.48 889.363 1181.27C887.394 1178.14 872.597 1179.07 869.898 1195.56C869.718 1196.05 870.191 1196.47 870.812 1196.35Z" fill="white"/>
<path d="M638.226 1192.25C639.246 1191.92 640.269 1191.61 641.359 1191.35C651.058 1188.89 662.211 1188.54 663.598 1192.99C664.762 1196.58 657.18 1201.47 647.449 1203.96C644.715 1204.68 642.09 1205.16 639.648 1205.46C639.355 1205.53 639.027 1205.35 638.992 1204.96C638.808 1202.82 638.047 1195.05 637.789 1192.92C637.715 1192.46 638.082 1192.32 638.226 1192.25ZM572.437 1196.35C570.066 1195.76 569.008 1195.38 566.492 1194.16C558.84 1190.49 552.023 1184.48 553.922 1181.27C555.851 1178.14 570.648 1179.07 573.348 1195.56C573.566 1196.05 573.055 1196.47 572.437 1196.35Z" fill="white"/>
<path fill-rule="evenodd" clip-rule="evenodd" d="M847.082 827.66L784.972 941.129L737.187 989.73L767.914 947.32L753.043 894.25" fill="#006431"/>
<path d="M577.176 756.27H716.738L648.215 701.359" fill="#006431"/>
<path d="M577.176 756.27H716.738L648.215 701.359L577.176 756.27Z" stroke="#006431" stroke-width="0.12" stroke-miterlimit="3.864"/>
<path d="M716.082 756.27H855.574L786.211 701.25" fill="#006431"/>
<path d="M716.082 756.27H855.574L786.211 701.25L716.082 756.27Z" stroke="#006431" stroke-width="0.12" stroke-miterlimit="3.864"/>
<path d="M647.996 701.359L787.121 701.512L717.433 647.84" fill="#EB1C23"/>
<path d="M504.894 812.09H645.773L576.261 757.039" fill="#006431"/>
<path d="M504.894 812.09H645.773L576.261 757.039L504.894 812.09Z" stroke="#006431" stroke-width="0.12" stroke-miterlimit="3.864"/>
<path d="M645.918 812.09L787.121 812.199L717.429 755.539" fill="#221F1F"/>
<path d="M645.918 812.09L787.121 812.199L717.429 755.539L645.918 812.09Z" stroke="#221F1F" stroke-width="0.12" stroke-miterlimit="3.864"/>
<path d="M787.086 812.199H926.613L854.883 755.602" fill="#006431"/>
<path d="M787.086 812.199H926.613L854.883 755.602L787.086 812.199Z" stroke="#006431" stroke-width="0.12" stroke-miterlimit="3.864"/>
<path fill-rule="evenodd" clip-rule="evenodd" d="M714.844 425.75C714.844 425.75 741.086 431.691 751.804 431.949C762.519 432.219 781.398 428.629 795.98 428.629C828.054 428.629 848.832 437.031 848.832 437.031C848.832 437.031 828.82 435.719 804.144 438.031C779.433 440.379 776.883 441.391 777.097 443.762C777.426 446.09 785.519 444.48 794.594 443.969C803.633 443.48 809.832 442.73 829.66 443.48C849.379 444.27 870.992 451.25 870.992 451.25C870.992 451.25 850.543 448.262 815.008 453.82C779.433 459.391 777.902 461.43 777.902 461.43C777.902 461.43 811.578 461.781 831.699 464.059C870.191 468.41 892.824 483.27 892.824 483.27C892.824 483.27 862.172 474.879 824.664 475.391C787.195 475.922 770.027 474.352 763.828 472.57C762.261 471.512 759.164 471.512 762.011 474.141C763.828 475.672 771.703 476.852 778.41 477.449C785.117 478.129 797.586 478.871 816.281 482.789C835.054 486.641 863.301 495.809 872.269 500.469C881.199 505.102 906.64 521.012 906.64 521.012C906.64 521.012 876.754 507.469 840.957 502.422C805.164 497.34 788.472 493.199 777.902 492.09C756.215 489.77 738.609 480.922 738.609 480.922C738.609 480.922 749.179 471.148 748.668 458.371C748.195 445.578 742.91 437.672 735.254 433.289C727.672 428.852 714.844 425.75 714.844 425.75Z" fill="#731705"/>
<path d="M1014.9 1113.93C1020.07 1111.54 1020.8 1115.24 1022 1119.87C1023.21 1124.5 1035.71 1157.13 1035.71 1157.13C1035.71 1157.13 1050.98 1172.95 1056.96 1179.14C1062.86 1185.34 1077.7 1200.61 1076.57 1206.1C1075.4 1211.65 1071.54 1216.39 1066 1216.39C1060.46 1216.39 1052.69 1208.63 1046.39 1199.57C1040.04 1190.46 1036.4 1181.91 1033.78 1174.82C1031.11 1167.73 1012.53 1119.09 1012.53 1119.09C1011.83 1115.99 1014.9 1113.93 1014.9 1113.93Z" fill="#9B753C"/>
<path d="M1082.47 1221.13C1078.9 1225.76 1074.93 1230.21 1080.9 1238.01C1086.77 1245.77 1089.47 1249.32 1097.34 1249.32C1105.22 1249.32 1119.36 1234.84 1123.66 1213.22C1128.03 1191.64 1126.87 1191.54 1127.6 1182.59C1128.4 1173.59 1130.37 1141.85 1130.37 1141.85C1130.37 1141.85 1129.6 1137.11 1126.03 1137.11C1122.49 1137.11 1121.69 1140 1121.69 1141.85C1121.69 1143.73 1120.12 1174.82 1120.12 1174.82C1120.12 1174.82 1121.69 1177.01 1117.39 1182.16C1113.02 1187.32 1082.47 1221.13 1082.47 1221.13Z" fill="#9B753C"/>
<path d="M1078.61 1289.33C1074.38 1293.32 1069.79 1297.13 1074.38 1305.71C1079.05 1314.33 1081.09 1318.29 1088.89 1319.49C1096.69 1320.68 1112.87 1308.63 1120.53 1287.98C1128.18 1267.31 1127.01 1267 1129.24 1258.27C1131.46 1249.58 1138.35 1218.56 1138.35 1218.56C1138.35 1218.56 1138.28 1213.75 1134.81 1213.15C1131.31 1212.62 1130.07 1215.35 1129.78 1217.14C1129.46 1218.96 1123.08 1249.47 1123.08 1249.47C1123.08 1249.47 1124.24 1251.89 1119.14 1256.29C1114.07 1260.7 1078.61 1289.33 1078.61 1289.33Z" fill="#9B753C"/>
<path d="M1023.13 1175.07C1028.38 1172.95 1028.97 1176.68 1029.88 1181.31C1030.79 1186.01 1041.65 1219.27 1041.65 1219.27C1041.65 1219.27 1056.05 1235.84 1061.62 1242.32C1067.2 1248.83 1081.27 1264.89 1079.81 1270.32C1078.32 1275.82 1074.31 1280.32 1068.77 1280.04C1063.23 1279.78 1055.9 1271.56 1050.03 1262.19C1044.2 1252.79 1040.96 1244.02 1038.73 1236.82C1036.47 1229.53 1020.47 1180.07 1020.47 1180.07C1020 1177.25 1023.13 1175.07 1023.13 1175.07Z" fill="#9B753C"/>
<path d="M1027.51 1233.05C1032.97 1231.66 1033.12 1235.4 1033.49 1240.1C1033.85 1244.88 1040.52 1279.22 1040.52 1279.22C1040.52 1279.22 1052.8 1297.42 1057.58 1304.51C1062.32 1311.69 1074.38 1329.29 1072.19 1334.52C1070.08 1339.75 1065.45 1343.78 1060.02 1342.82C1054.63 1341.87 1048.28 1332.85 1043.62 1322.84C1039.02 1312.77 1036.84 1303.71 1035.53 1296.23C1034.14 1288.76 1024.3 1237.75 1024.3 1237.75C1023.83 1234.31 1027.51 1233.05 1027.51 1233.05Z" fill="#9B753C"/>
<path d="M1072.7 1353.53C1068.26 1357.25 1063.45 1360.84 1067.67 1369.64C1071.83 1378.46 1073.65 1382.53 1081.38 1384.17C1089.11 1385.81 1105.91 1374.59 1114.69 1354.35C1123.41 1334.12 1122.28 1333.74 1124.86 1325.16C1127.56 1316.57 1136.05 1285.98 1136.05 1285.98C1136.05 1285.98 1136.27 1281.11 1132.77 1280.41C1129.31 1279.7 1127.96 1282.35 1127.56 1284.13C1127.16 1285.98 1119.14 1316.01 1119.14 1316.01C1119.14 1316.01 1120.23 1318.5 1114.91 1322.66C1109.66 1326.76 1072.7 1353.53 1072.7 1353.53Z" fill="#9B753C"/>
<path d="M1025.17 1302.09C1030.71 1301.05 1030.64 1304.78 1030.64 1309.56C1030.71 1314.29 1034.94 1349.05 1034.94 1349.05C1034.94 1349.05 1045.95 1368.04 1050.18 1375.51C1054.41 1382.93 1065.2 1401.34 1062.68 1406.42C1060.17 1411.49 1055.35 1415.19 1049.96 1413.84C1044.64 1412.49 1038.95 1403.09 1035.01 1392.75C1031.11 1382.38 1029.58 1373.2 1028.75 1365.65C1027.91 1358.12 1021.67 1306.5 1021.67 1306.5C1021.38 1303.47 1025.17 1302.09 1025.17 1302.09Z" fill="#9B753C"/>
<path d="M1040.85 1444.75C1040.45 1455.01 1050.83 1457.36 1056.27 1456.61C1061.62 1455.79 1071.43 1450.76 1081.67 1439.34C1091.95 1427.87 1120.12 1368.26 1120.12 1368.26C1120.12 1368.26 1124.83 1362.06 1120.12 1360.02C1115.35 1358.07 1115.35 1360.2 1114.18 1362.06C1113.02 1363.87 1100.88 1392.61 1098.15 1396.52C1095.38 1400.52 1070.23 1419.21 1060.09 1426.3C1049.92 1433.39 1040.85 1444.75 1040.85 1444.75Z" fill="#9B753C"/>
<path d="M1011.47 1495.07C1011.07 1501.37 1015.7 1511.89 1023.61 1510.32C1031.48 1508.72 1044.49 1505.16 1057.47 1491.89C1070.37 1478.59 1079.3 1464.05 1084.88 1457.36C1090.35 1450.64 1098.95 1440.12 1098.95 1440.12C1098.95 1440.12 1100.88 1435.78 1098.15 1434.21C1095.38 1432.61 1092.31 1433.03 1089.54 1436.95C1086.77 1440.94 1072.7 1460.8 1069.57 1464.37C1066.36 1467.93 1041.87 1476.37 1033.56 1480.32C1025.25 1484.24 1013.15 1490.44 1011.47 1495.07Z" fill="#9B753C"/>
<path d="M970.246 1553.55C968.605 1560.22 968.824 1571.16 985.844 1567.98C1002.79 1564.81 1016.5 1552.98 1024.01 1546.79C1031.48 1540.59 1044.49 1525.28 1050.32 1518.61C1056.12 1511.89 1062.46 1505.84 1064.83 1503.65C1067.16 1501.37 1066.8 1500.17 1064.83 1498.6C1062.86 1497.03 1060.46 1497.11 1057.32 1500.17C1054.19 1503.2 1041.14 1520.04 1033.78 1525.59C1026.38 1531.11 1000.53 1536.75 990.691 1540.59C980.851 1544.4 972.687 1549.1 970.246 1553.55Z" fill="#9B753C"/>
<path d="M974.144 1520.82C975.894 1525.77 978.371 1528.02 985.441 1527.84C992.59 1527.56 997.105 1525.92 999.367 1521.11C1001.55 1516.3 995.648 1494.79 993.679 1483.53C991.715 1472.25 989.523 1466.91 991.351 1460.95C993.097 1454.93 996.379 1448.78 996.672 1444.93C996.961 1441.09 993.718 1439.08 990.656 1442.39C989.015 1444.07 980.414 1473.96 979.101 1480.2C977.718 1486.43 973.195 1504.23 973.343 1508.61C973.488 1512.93 974.144 1520.82 974.144 1520.82Z" fill="#9B753C"/>
<path d="M1013.66 1474.64C1016.57 1479.05 1019.49 1480.69 1026.34 1478.7C1033.16 1476.77 1037.2 1474.09 1038.15 1468.9C1039.13 1463.66 1028.2 1444.22 1023.57 1433.78C1018.94 1423.28 1015.55 1418.65 1015.81 1412.42C1016.06 1406.18 1017.81 1399.35 1017.16 1395.6C1016.5 1391.79 1012.53 1391 1011.07 1393.43C1009.83 1395.45 1008.41 1427.69 1008.63 1434.07C1008.77 1440.45 1008.7 1458.82 1009.94 1462.99C1011.1 1467.22 1013.66 1474.64 1013.66 1474.64Z" fill="#9B753C"/>
<path d="M918.051 1606.02C915.68 1612.43 914.074 1623.26 931.355 1622.22C948.558 1621.18 963.574 1611.07 971.812 1605.8C980.012 1600.61 994.847 1587.03 1001.41 1581.05C1007.97 1575.07 1014.97 1569.86 1017.59 1567.95C1020.22 1565.98 1020 1564.78 1018.17 1562.95C1016.43 1561.15 1014.06 1560.97 1010.52 1563.63C1007.09 1566.23 992.078 1581.4 984.058 1586.01C976.039 1590.56 949.722 1593.04 939.48 1595.61C929.238 1598.22 918.051 1606.02 918.051 1606.02Z" fill="#9B753C"/>
<path d="M925.086 1577.81C925.851 1583.04 927.855 1585.72 934.851 1586.88C941.851 1587.96 946.664 1587.25 949.722 1582.96C952.859 1578.62 951.183 1556.37 951.328 1544.96C951.582 1533.5 950.453 1527.87 953.367 1522.31C956.246 1516.79 960.66 1511.36 961.644 1507.68C962.664 1503.94 959.601 1502.27 957.23 1502.63C954.937 1503.12 940.176 1533.01 937.66 1538.91C935.105 1544.78 927.269 1561.42 926.613 1565.67C925.957 1569.97 925.086 1577.81 925.086 1577.81Z" fill="#9B753C"/>
<path d="M881.273 1624.71C881.929 1629.95 882.801 1635.11 889.801 1636.32C896.801 1637.57 902.633 1634.54 905.84 1630.29C908.972 1626.03 907.66 1603.74 908.097 1592.33C908.535 1580.91 907.515 1575.24 910.504 1569.75C913.457 1564.21 918.011 1558.93 919.07 1555.26C920.125 1551.49 917.066 1549.74 914.769 1550.18C912.398 1550.56 897.164 1580.2 894.504 1586.06C891.844 1591.84 883.75 1608.34 882.949 1612.63C882.258 1616.88 881.273 1624.71 881.273 1624.71Z" fill="#9B753C"/>
<path d="M755.519 1700.31C755.519 1700.31 797.656 1702.13 868.586 1668.42C919.98 1643.3 923.113 1639.1 923.113 1639.1C923.113 1639.1 924.719 1635.93 923.918 1633.57C923.113 1631.19 920.347 1630.8 917.211 1632.75C914.074 1634.76 903.797 1642.52 895.633 1644.88C887.394 1647.26 881.125 1646.66 877.187 1642.23C870.191 1634.36 870.992 1613.14 870.992 1613.14C870.992 1613.14 850.582 1637.89 821.461 1658.32C792.406 1678.73 755.519 1700.31 755.519 1700.31Z" fill="#9B753C"/>
<path d="M1062.24 1064.27C1065.05 1064.52 1065.67 1066.31 1066.07 1067.88C1066.51 1069.52 1084.26 1184.77 1084.26 1184.77C1084.26 1184.77 1062.46 1172.16 1060.39 1158.44C1058.42 1144.77 1067.27 1127.22 1067.27 1122.72C1067.27 1118.23 1059.44 1067.51 1059.44 1067.51C1059.44 1067.51 1059.44 1064.52 1062.24 1064.27Z" fill="#9B753C"/>
<path d="M1076.6 1066.69C1079.41 1066.31 1080.87 1069.3 1081.23 1071.76C1081.67 1074.18 1088.09 1117.45 1088.09 1117.45C1088.09 1117.45 1108.93 1149.18 1109.96 1155.63C1110.9 1162.08 1108.93 1170.12 1103.32 1176.24C1097.64 1182.4 1092.61 1184.77 1092.61 1184.77L1074.23 1070.12C1074.23 1070.12 1075 1067.33 1076.6 1066.69Z" fill="#9B753C"/>
<path d="M425.578 1113.93C420.406 1111.54 419.605 1115.24 418.437 1119.87C417.23 1124.5 404.73 1157.13 404.73 1157.13C404.73 1157.13 389.422 1172.95 383.519 1179.14C377.539 1185.34 362.668 1200.61 363.871 1206.1C365.004 1211.65 368.902 1216.39 374.406 1216.39C379.945 1216.39 387.711 1208.63 394.09 1199.57C400.355 1190.46 404.074 1181.91 406.699 1174.82C409.324 1167.73 427.949 1119.09 427.949 1119.09C428.644 1115.99 425.578 1113.93 425.578 1113.93Z" fill="#9B753C"/>
<path d="M357.929 1221.13C361.504 1225.76 365.437 1230.21 359.496 1238.01C353.558 1245.77 350.933 1249.32 343.062 1249.32C335.113 1249.32 320.972 1234.84 316.672 1213.22C312.297 1191.64 313.535 1191.54 312.695 1182.59C311.929 1173.59 309.926 1141.85 309.926 1141.85C309.926 1141.85 310.691 1137.11 314.265 1137.11C317.836 1137.11 318.64 1140 318.64 1141.85C318.64 1143.73 320.242 1174.82 320.242 1174.82C320.242 1174.82 318.64 1177.01 323.011 1182.16C327.312 1187.32 357.929 1221.13 357.929 1221.13Z" fill="#9B753C"/>
<path d="M361.797 1289.33C366.023 1293.32 370.613 1297.13 365.984 1305.71C361.355 1314.33 359.316 1318.29 351.515 1319.49C343.679 1320.68 327.461 1308.63 319.804 1287.98C312.078 1267.31 313.316 1267 311.094 1258.27C308.941 1249.58 301.98 1218.56 301.98 1218.56C301.98 1218.56 302.015 1213.75 305.515 1213.15C309.015 1212.62 310.254 1215.35 310.547 1217.14C310.84 1218.96 317.289 1249.47 317.289 1249.47C317.289 1249.47 316.086 1251.89 321.187 1256.29C326.293 1260.7 361.797 1289.33 361.797 1289.33Z" fill="#9B753C"/>
<path d="M417.414 1175.07C412.093 1172.95 411.511 1176.68 410.562 1181.31C409.617 1186.01 398.824 1219.27 398.824 1219.27C398.824 1219.27 384.394 1235.84 378.777 1242.32C373.203 1248.83 359.097 1264.89 360.554 1270.32C362.011 1275.82 366.093 1280.32 371.672 1280.04C377.175 1279.78 384.574 1271.56 390.371 1262.19C396.203 1252.79 399.484 1244.02 401.707 1236.82C404.004 1229.53 420.004 1180.07 420.004 1180.07C420.441 1177.25 417.414 1175.07 417.414 1175.07Z" fill="#9B753C"/>
<path d="M412.969 1233.05C407.465 1231.66 407.355 1235.4 406.992 1240.1C406.629 1244.88 399.922 1279.22 399.922 1279.22C399.922 1279.22 387.601 1297.42 382.863 1304.51C378.09 1311.69 366.094 1329.29 368.211 1334.52C370.324 1339.75 374.953 1343.78 380.383 1342.82C385.816 1341.87 392.156 1332.85 396.82 1322.84C401.414 1312.77 403.566 1303.71 404.914 1296.23C406.301 1288.76 416.176 1237.75 416.176 1237.75C416.648 1234.31 412.969 1233.05 412.969 1233.05Z" fill="#9B753C"/>
<path d="M367.699 1353.57C372.148 1357.32 376.922 1360.88 372.804 1369.72C368.574 1378.57 366.679 1382.6 358.949 1384.24C351.226 1385.88 334.457 1374.62 325.711 1354.43C316.886 1334.2 318.054 1333.82 315.429 1325.23C312.804 1316.65 304.277 1286.01 304.277 1286.01C304.277 1286.01 304.058 1281.18 307.558 1280.45C311.019 1279.74 312.406 1282.38 312.769 1284.21C313.136 1286.01 321.187 1316.05 321.187 1316.05C321.187 1316.05 320.097 1318.6 325.383 1322.73C330.738 1326.84 367.699 1353.57 367.699 1353.57Z" fill="#9B753C"/>
<path d="M415.301 1302.09C409.762 1301.05 409.836 1304.78 409.762 1309.56C409.762 1314.29 405.531 1349.05 405.531 1349.05C405.531 1349.05 394.527 1368.04 390.262 1375.51C385.996 1382.93 375.207 1401.34 377.758 1406.42C380.238 1411.49 385.121 1415.19 390.441 1413.84C395.84 1412.49 401.488 1403.09 405.387 1392.75C409.359 1382.38 410.89 1373.2 411.73 1365.65C412.566 1358.12 418.801 1306.5 418.801 1306.5C419.094 1303.47 415.301 1302.09 415.301 1302.09Z" fill="#9B753C"/>
<path d="M399.593 1444.75C399.992 1455.01 389.57 1457.36 384.176 1456.61C378.777 1455.79 368.976 1450.76 358.734 1439.34C348.418 1427.87 320.242 1368.26 320.242 1368.26C320.242 1368.26 315.429 1362.06 320.242 1360.02C324.945 1358.07 324.945 1360.2 326.148 1362.06C327.312 1363.87 339.449 1392.61 342.222 1396.52C344.953 1400.52 370.176 1419.21 380.312 1426.3C390.48 1433.39 399.593 1444.75 399.593 1444.75Z" fill="#9B753C"/>
<path d="M429.008 1495.07C429.406 1501.37 424.777 1511.89 416.867 1510.32C408.961 1508.72 395.91 1505.16 382.972 1491.89C370.07 1478.59 361.101 1464.05 355.523 1457.36C350.019 1450.64 341.453 1440.12 341.453 1440.12C341.453 1440.12 339.449 1435.78 342.222 1434.21C344.953 1432.61 348.015 1433.03 350.785 1436.95C353.558 1440.94 367.699 1460.8 370.832 1464.37C374.039 1467.93 398.609 1476.37 406.918 1480.32C415.191 1484.24 427.328 1490.44 429.008 1495.07Z" fill="#9B753C"/>
<path d="M470.34 1553.55C471.945 1560.22 471.691 1571.16 454.668 1567.98C437.683 1564.81 423.976 1552.98 416.469 1546.79C408.961 1540.59 395.91 1525.28 390.078 1518.61C384.285 1511.89 377.976 1505.84 375.644 1503.65C373.238 1501.37 373.605 1500.17 375.644 1498.6C377.539 1497.03 379.945 1497.11 383.078 1500.17C386.289 1503.2 399.266 1520.04 406.699 1525.59C414.098 1531.11 439.976 1536.75 449.82 1540.59C459.699 1544.4 467.789 1549.1 470.34 1553.55Z" fill="#9B753C"/>
<path d="M466.367 1520.82C464.656 1525.77 462.176 1528.02 455.105 1527.84C447.926 1527.56 443.406 1525.92 441.183 1521.11C438.957 1516.3 444.863 1494.79 446.828 1483.53C448.836 1472.25 450.988 1466.91 449.199 1460.95C447.449 1454.93 444.097 1448.78 443.879 1444.93C443.551 1441.09 446.758 1439.08 449.855 1442.39C451.496 1444.07 460.136 1473.96 461.449 1480.2C462.832 1486.43 467.351 1504.23 467.207 1508.61C467.023 1512.93 466.367 1520.82 466.367 1520.82Z" fill="#9B753C"/>
<path d="M426.82 1474.64C423.902 1479.05 420.988 1480.69 414.136 1478.7C407.316 1476.77 403.234 1474.09 402.254 1468.9C401.34 1463.66 412.238 1444.22 416.906 1433.78C421.535 1423.28 424.925 1418.65 424.668 1412.42C424.414 1406.18 422.664 1399.35 423.285 1395.6C423.976 1391.79 427.949 1391 429.406 1393.43C430.644 1395.45 432.066 1427.69 431.922 1434.07C431.703 1440.45 431.777 1458.82 430.539 1462.99C429.406 1467.22 426.82 1474.64 426.82 1474.64Z" fill="#9B753C"/>
<path d="M522.535 1606.02C524.941 1612.43 526.547 1623.26 509.269 1622.22C491.992 1621.18 476.972 1611.07 468.738 1605.8C460.5 1600.61 445.703 1587.03 439.105 1581.05C432.543 1575.07 425.507 1569.86 422.882 1567.95C420.261 1565.98 420.476 1564.78 422.3 1562.95C424.05 1561.15 426.418 1560.97 429.953 1563.63C433.382 1566.23 448.437 1581.4 456.418 1586.01C464.437 1590.56 490.828 1593.04 501.066 1595.61C511.382 1598.22 522.535 1606.02 522.535 1606.02Z" fill="#9B753C"/>
<path d="M515.539 1577.81C514.734 1583.04 512.769 1585.72 505.734 1586.88C498.699 1587.96 493.887 1587.25 490.824 1582.96C487.766 1578.62 489.367 1556.37 489.223 1544.96C489.004 1533.5 490.098 1527.87 487.215 1522.31C484.34 1516.79 479.891 1511.36 478.871 1507.68C477.887 1503.94 480.945 1502.27 483.316 1502.63C485.648 1503.12 500.375 1533.01 502.926 1538.91C505.476 1544.78 513.312 1561.42 514.008 1565.67C514.664 1569.97 515.539 1577.81 515.539 1577.81Z" fill="#9B753C"/>
<path d="M559.351 1624.71C558.73 1629.95 557.82 1635.11 550.855 1636.32C543.824 1637.57 537.992 1634.54 534.82 1630.29C531.648 1626.03 532.961 1603.74 532.523 1592.33C532.121 1580.91 533.105 1575.24 530.156 1569.75C527.164 1564.21 522.609 1558.93 521.55 1555.26C520.496 1551.49 523.484 1549.74 525.89 1550.18C528.222 1550.56 543.531 1580.2 546.156 1586.06C548.781 1591.84 556.91 1608.34 557.672 1612.63C558.402 1616.88 559.351 1624.71 559.351 1624.71Z" fill="#9B753C"/>
<path d="M685.32 1700.31C685.32 1700.31 643.183 1702.13 572.035 1668.42C520.64 1643.3 517.508 1639.1 517.508 1639.1C517.508 1639.1 515.902 1635.93 516.703 1633.57C517.508 1631.19 520.203 1630.8 523.41 1632.75C526.547 1634.76 536.863 1642.52 545.062 1644.88C553.152 1647.26 559.57 1646.66 563.508 1642.23C570.504 1634.36 569.703 1613.14 569.703 1613.14C569.703 1613.14 590.113 1637.89 619.238 1658.32C648.398 1678.73 685.32 1700.31 685.32 1700.31Z" fill="#9B753C"/>
<path d="M378.16 1064.27C375.355 1064.52 374.734 1066.31 374.332 1067.88C373.969 1069.52 356.109 1184.77 356.109 1184.77C356.109 1184.77 377.98 1172.16 379.984 1158.44C381.988 1144.77 373.129 1127.22 373.129 1122.72C373.129 1118.23 381.004 1067.51 381.004 1067.51C381.004 1067.51 381.004 1064.52 378.16 1064.27Z" fill="#9B753C"/>
<path d="M363.801 1066.69C360.957 1066.31 359.535 1069.3 359.133 1071.76C358.734 1074.18 352.242 1117.45 352.242 1117.45C352.242 1117.45 331.429 1149.18 330.445 1155.63C329.426 1162.08 331.429 1170.12 337.082 1176.24C342.695 1182.4 347.797 1184.77 347.797 1184.77L366.168 1070.12C366.168 1070.12 365.402 1067.33 363.801 1066.69Z" fill="#9B753C"/>
<path fill-rule="evenodd" clip-rule="evenodd" d="M643.109 684.672L717.613 626.48L756.98 657.801C756.98 657.801 768.277 640.289 771.449 620.238C774.547 600.211 775.203 582.699 775.203 582.699C775.203 582.699 755.961 582.262 742.617 575.789C718.195 563.891 703.836 535.121 703.836 535.121C703.836 535.121 706.312 551.988 699.465 578.891C692.535 605.809 680.652 623.98 670.011 635.941C659.367 647.762 643.109 684.672 643.109 684.672Z" fill="#9F5A08"/>
<path d="M643.109 684.672L717.613 626.48L756.98 657.801C756.98 657.801 768.277 640.289 771.449 620.238C774.547 600.211 775.203 582.699 775.203 582.699C775.203 582.699 755.961 582.262 742.617 575.789C718.195 563.891 703.836 535.121 703.836 535.121C703.836 535.121 706.312 551.988 699.465 578.891C692.535 605.809 680.652 623.98 670.011 635.941C659.367 647.762 643.109 684.672 643.109 684.672Z" stroke="#9B753C" stroke-width="0.12" stroke-miterlimit="3.864"/>
<path d="M723.883 504.41C723.883 504.41 726.945 532.621 740.722 548.219C754.5 563.891 774.547 575.789 774.547 575.789C774.547 575.789 773.273 545.801 765.801 533.84C758.293 521.941 723.883 504.41 723.883 504.41Z" fill="#9F5A08"/>
<path d="M723.883 504.41C723.883 504.41 726.945 532.621 740.722 548.219C754.5 563.891 774.547 575.789 774.547 575.789C774.547 575.789 773.273 545.801 765.801 533.84C758.293 521.941 723.883 504.41 723.883 504.41Z" stroke="#9B753C" stroke-width="0.12" stroke-miterlimit="3.864"/>
<path fill-rule="evenodd" clip-rule="evenodd" d="M788.398 573.68C788.398 573.68 788.801 606.699 783.297 625.551C777.828 644.41 767.551 666.789 767.551 666.789L805.676 697.02C805.676 697.02 843.801 692.738 867.347 688.039C890.929 683.301 909.117 678.559 918.812 668.781C931.754 655.75 922.715 640.07 922.715 640.07C922.715 640.07 954.715 625.86 969.48 615.32C991.496 599.61 980.488 584.34 980.488 584.34C980.488 584.34 1005.05 578.449 1020.58 570.16C1048.43 555.238 1036.25 541.91 1036.25 541.91C1036.25 541.91 1071.03 539.11 1099.09 527.352C1118.74 519.102 1115.86 508.84 1114.77 501C1113.6 493.16 1108.06 470.801 1092.82 450.75C1077.55 430.719 1068.11 419.328 1059.44 418.59C1050.76 417.77 1035.45 449.11 1031.95 455.469C1028.42 461.82 982.457 534.078 925.886 583.16C869.316 632.199 829.73 648.09 818.289 646.762C808.008 645.602 804.109 620.41 802.176 614.141C800.207 607.91 788.398 573.68 788.398 573.68Z" fill="#DEC16A"/>
<path fill-rule="evenodd" clip-rule="evenodd" d="M584.902 493.511C584.902 493.511 589.019 486.359 593.613 480.921C596.82 477.269 599.59 477.558 605.203 477.82C610.816 478.128 661.847 484.73 671.867 487.238C681.894 489.699 688.781 491.941 692.535 496.011C696.328 500.031 700.336 508.199 702.89 513.851C705.367 519.441 714.843 542.839 730.078 556.421C754.5 577.961 770.828 579.238 770.828 579.238C770.828 579.238 759.531 576.429 746.047 564.531C732.593 552.628 724.797 536.988 721.66 522.578C718.523 508.199 717.14 503.461 716.519 497.23C716.23 494.878 715.937 493.511 716.593 492.828C717.175 492.199 718.195 491.808 719.144 492.011C720.093 492.121 723.699 495.218 725.633 496.609C727.601 498.011 756.687 514.101 759.531 516.16C762.336 518.199 782.093 534.148 792.554 556.421C803.015 578.601 804.472 587.371 807.715 600.109C811.289 613.648 815.117 615.101 815.117 615.101C815.117 615.101 817.922 600.691 814.933 582.55C811.945 564.378 804.945 546.691 796.453 535.109C788.035 523.511 779.25 514.738 779.25 514.738C779.25 514.738 793.32 520.699 821.859 528.5C850.289 536.351 859.695 538.89 875.367 544.48C890.968 550.148 915.39 560.429 915.39 560.429C915.39 560.429 906.058 548.73 881.89 536.351C856.851 523.511 837.75 513.851 819.015 507.871C800.211 501.89 778.777 495.191 769.519 493.761C750.781 490.961 739.117 481.039 739.117 481.039C739.117 481.039 747.722 474.05 749.105 461.511C750.418 448.968 745.133 438.601 736.277 433.48C727.453 428.41 721.039 426.839 712.218 425.199C703.359 423.601 680.984 421.429 674.312 420.941C667.605 420.39 660.172 421.718 654.265 425.711C648.359 429.761 644.058 436.39 642.711 440.128C642.711 440.128 615.554 446.289 606.152 451.14C596.82 455.949 589.347 459.941 585.047 473.828C580.781 487.679 584.902 493.511 584.902 493.511Z" fill="#C38810"/>
<path d="M719.363 828.039L684.883 950.129L720.566 996.441L750.636 951.352L719.363 828.039Z" fill="#006431"/>
<path fill-rule="evenodd" clip-rule="evenodd" d="M588.875 827.66L650.91 941.129L698.734 989.73L667.969 947.32L682.84 894.25" fill="#006431"/>
<path fill-rule="evenodd" clip-rule="evenodd" d="M662.285 973.859L641.726 954.871L612.929 903.551L464 840.32L595.472 942.551" fill="#006431"/>
<path fill-rule="evenodd" clip-rule="evenodd" d="M476.828 828.039L599.59 879.91L570.867 828.039" fill="#C38810"/>
<path d="M615.48 828.039L687.469 878.871L701.797 828.039" fill="#C38810"/>
<path fill-rule="evenodd" clip-rule="evenodd" d="M774.183 973.859L794.742 954.871L823.535 903.551L972.469 840.32L840.961 942.551" fill="#006431"/>
<path fill-rule="evenodd" clip-rule="evenodd" d="M959.64 828.039L836.879 879.91L865.597 828.039" fill="#C38810"/>
<path d="M820.949 828.039L749.031 878.871L734.672 828.039" fill="#C38810"/>
<path d="M786.976 701.09H647.449L717.031 756.93" fill="#F9AB17"/>
<path d="M717.687 756.379H575.972L645.515 812.262" fill="#F9AB17"/>
<path d="M856.121 756.379H716.594L787.23 812.77" fill="#F9AB17"/>
<path d="M863.922 1441.87C863.851 1441.01 863.777 1440.16 863.777 1439.41C863.777 1439.34 863.777 1439.15 863.558 1439.04C863.375 1438.88 863.086 1438.91 863.086 1438.91L844.492 1441.72C844.492 1441.72 844.093 1441.76 843.875 1441.94C843.586 1442.18 843.511 1442.47 843.511 1442.47L842.488 1445.28C842.488 1445.28 842.343 1445.53 842.562 1445.68C842.636 1445.89 843 1445.79 843 1445.79L863.41 1442.65C863.41 1442.65 863.703 1442.62 863.851 1442.43C863.996 1442.22 863.922 1441.98 863.922 1441.87Z" fill="white"/>
<path d="M812.09 1332.29C812.89 1333.07 813.039 1332.92 813.367 1332.92C813.656 1332.92 813.984 1332.66 813.984 1332.66L844.387 1311.38C844.387 1311.38 844.711 1311.12 844.824 1310.94C844.859 1310.7 844.676 1310.48 844.605 1310.41C844.019 1309.67 843.437 1308.96 843.035 1308.37C842.965 1308.28 842.781 1307.99 842.418 1308.02C842.125 1308.06 841.105 1308.84 841.105 1308.84L811.215 1329.15C811.215 1329.15 810.633 1329.4 810.668 1330.2C810.668 1330.79 811.363 1331.39 812.09 1332.29Z" fill="white"/>
<path d="M782.164 1446.28C781.84 1447.21 781.621 1447.81 781.328 1448.85C781.254 1448.92 781.07 1449.34 781.179 1449.56C781.328 1449.78 781.691 1449.67 781.691 1449.67L805.312 1444.68C805.312 1444.68 805.894 1444.6 806.113 1444.36C806.402 1444 806.074 1443.51 806.004 1443.21C805.676 1442.47 805.676 1442.29 805.601 1441.61C805.601 1441.43 805.531 1441.09 805.094 1440.98C804.726 1440.79 804.183 1440.94 804.183 1440.94L783.222 1445.42C783.222 1445.42 782.82 1445.49 782.566 1445.64C782.312 1445.89 782.238 1446.17 782.164 1446.28Z" fill="white"/>
<path d="M579.906 1441.87C580.019 1441.01 580.054 1440.16 580.09 1439.41C580.09 1439.34 580.125 1439.15 580.273 1439.04C580.453 1438.88 580.781 1438.91 580.781 1438.91L599.371 1441.72C599.371 1441.72 599.734 1441.76 599.953 1441.94C600.246 1442.18 600.32 1442.47 600.32 1442.47L601.34 1445.28C601.34 1445.28 601.484 1445.53 601.34 1445.68C601.195 1445.89 600.828 1445.79 600.828 1445.79L580.418 1442.65C580.418 1442.65 580.164 1442.62 580.019 1442.43C579.836 1442.22 579.906 1441.98 579.906 1441.87Z" fill="white"/>
<path d="M631.738 1332.29C630.937 1333.07 630.863 1332.92 630.5 1332.92C630.172 1332.92 629.808 1332.66 629.808 1332.66L599.445 1311.38C599.445 1311.38 599.117 1311.12 599.043 1310.94C598.969 1310.7 599.152 1310.48 599.226 1310.41C599.883 1309.67 600.39 1308.96 600.828 1308.37C600.867 1308.28 601.051 1307.99 601.34 1308.02C601.738 1308.06 602.726 1308.84 602.726 1308.84L632.613 1329.15C632.613 1329.15 633.195 1329.4 633.16 1330.2C633.16 1330.79 632.469 1331.39 631.738 1332.29Z" fill="white"/>
<path d="M661.699 1446.28C661.992 1447.21 662.211 1447.81 662.574 1448.85C662.609 1448.92 662.793 1449.34 662.648 1449.56C662.504 1449.78 662.137 1449.67 662.137 1449.67L638.594 1444.68C638.594 1444.68 637.933 1444.6 637.715 1444.36C637.461 1444 637.715 1443.51 637.824 1443.21C638.117 1442.47 638.152 1442.29 638.226 1441.61C638.226 1441.43 638.301 1441.09 638.738 1440.98C639.137 1440.79 639.683 1440.94 639.683 1440.94L660.605 1445.42C660.605 1445.42 661.008 1445.49 661.262 1445.64C661.554 1445.89 661.629 1446.17 661.699 1446.28Z" fill="white"/>
<path d="M732.449 1191.46C732.812 1192.02 733.14 1192.63 733.433 1193.14C733.433 1193.25 733.652 1193.52 733.945 1193.56C734.199 1193.59 734.527 1193.41 734.527 1193.41L746.664 1185.68C746.664 1185.68 747.027 1185.57 747.14 1185.08C747.14 1184.66 746.812 1184.44 746.699 1184.26C746.191 1183.77 745.679 1183.24 745.097 1182.73C745.023 1182.62 744.73 1182.4 744.367 1182.44C744.004 1182.44 743.715 1182.66 743.715 1182.66L732.738 1190.57C732.738 1190.57 732.484 1190.75 732.41 1190.93C732.34 1191.17 732.41 1191.39 732.449 1191.46Z" fill="white"/>
<path d="M729.824 1186.61C730.152 1187.14 730.152 1187.39 730.59 1188C730.59 1188.07 730.66 1188.22 730.988 1188.25C731.281 1188.25 731.609 1188.07 731.609 1188.07L741.707 1180.16C741.707 1180.16 742.035 1179.85 742.105 1179.67C742.219 1179.49 741.996 1179.21 741.926 1179.14C741.305 1178.43 740.758 1177.74 740.32 1177.1C740.285 1177.01 740.141 1176.79 739.773 1176.79C739.41 1176.79 739.117 1177.14 739.117 1177.14L730.008 1185.65C730.008 1185.65 729.68 1185.79 729.68 1186.16C729.641 1186.39 729.75 1186.54 729.824 1186.61Z" fill="white"/>
<path d="M711.418 1191.46C711.015 1192.02 710.726 1192.63 710.472 1193.14C710.398 1193.25 710.175 1193.52 709.886 1193.56C709.633 1193.59 709.34 1193.41 709.34 1193.41L697.164 1185.68C697.164 1185.68 696.765 1185.57 696.726 1185.08C696.691 1184.66 697.019 1184.44 697.164 1184.26C697.64 1183.77 698.222 1183.24 698.734 1182.73C698.808 1182.62 699.172 1182.4 699.461 1182.44C699.789 1182.44 700.117 1182.66 700.117 1182.66L711.09 1190.57C711.09 1190.57 711.418 1190.75 711.492 1190.93C711.492 1191.17 711.418 1191.39 711.418 1191.46Z" fill="white"/>
<path d="M714.004 1186.61C713.715 1187.14 713.676 1187.39 713.312 1188C713.238 1188.07 713.168 1188.22 712.84 1188.25C712.547 1188.25 712.293 1188.07 712.293 1188.07L702.16 1180.16C702.16 1180.16 701.797 1179.85 701.722 1179.67C701.613 1179.49 701.832 1179.21 701.906 1179.14C702.523 1178.43 703.105 1177.74 703.508 1177.1C703.617 1177.01 703.762 1176.79 704.054 1176.79C704.418 1176.79 704.711 1177.14 704.711 1177.14L713.824 1185.65C713.824 1185.65 714.152 1185.79 714.187 1186.16C714.187 1186.39 714.078 1186.54 714.004 1186.61Z" fill="white"/>
<path d="M934.344 984.649L761.426 1015.03L950.965 1047.65C950.965 1047.65 958.98 1049.14 957.449 1057.02C955.992 1064.93 948.047 1063.1 948.047 1063.1L719.437 1022.43L493.887 1062.14C493.887 1062.14 485.722 1064.07 484.082 1056.43C482.441 1048.74 490.754 1047.05 490.754 1047.05L677.664 1015.03L524.215 987.781L527.347 974.789L719.508 1007.87L949.941 968.41C952.785 967.699 955.336 967.192 957.672 966.77C985.371 959 986.281 951.731 997.617 932.692C1001.12 928.219 1004.11 923.43 1016.65 923.699C1038.51 924.031 1062.86 932.93 1066.51 953.899C1070.26 974.949 1052.95 990.32 1029.99 999.43C1018.4 1004.13 1013.91 1000.48 1008.99 997.531C991.496 983.219 988.98 976.211 958.91 980.442C956.976 980.871 954.172 981.219 951.945 981.578L934.344 984.649Z" fill="#221F1F"/>
<path d="M717.906 1035.4C717.906 1035.4 956.539 1078.6 956.246 1078.71C980.707 1133.23 994.121 1193.63 994.121 1255.1C994.121 1427.58 888.562 1592.48 728.914 1673.72L721.66 1677.42L714.332 1673.72C554.683 1592.48 449.129 1427.58 449.129 1255.1C449.129 1193.1 462.687 1132.16 487.547 1077.17C488.164 1077.96 717.906 1035.4 717.906 1035.4Z" fill="#731705"/>
<path d="M474.351 1254.95C474.351 1199.3 485.394 1145.92 505.551 1096.47C505.515 1097.29 718.562 1057.44 718.562 1056.95C719.437 1056.54 939.664 1097.29 938.133 1097.55C958.035 1146.72 968.933 1199.72 968.933 1254.95C968.933 1396.93 897.234 1523.95 784.461 1608.75C784.461 1608.75 767.984 1622.89 753.008 1632.26C738.097 1641.63 721.66 1649.1 721.66 1649.1C721.66 1649.1 704.89 1640.84 685.648 1628.6C666.367 1616.37 658.855 1608.75 658.855 1608.75C546.011 1523.95 474.351 1396.93 474.351 1254.95Z" fill="#DEC16A"/>
<path d="M475.113 1254.96C475.113 1396.66 546.636 1523.46 659.316 1608.14L659.359 1608.18L659.402 1608.21C659.41 1608.21 661.234 1610.08 665.5 1613.49C669.765 1616.91 676.437 1621.85 686.058 1627.95C695.66 1634.06 704.648 1639.18 711.234 1642.77C716.754 1645.78 720.574 1647.7 721.672 1648.25C722.754 1647.75 726.422 1646.04 731.394 1643.51C737.355 1640.48 745.176 1636.28 752.601 1631.61C760.051 1626.95 767.898 1621.09 773.879 1616.39C779.859 1611.7 783.953 1608.18 784 1608.14C896.609 1523.46 968.164 1396.66 968.164 1254.96C968.164 1199.95 957.34 1147.16 937.558 1098.17C937.539 1098.17 937.515 1098.16 937.492 1098.16C937.187 1098.09 936.722 1097.99 936.113 1097.86C934.89 1097.61 933.094 1097.25 930.781 1096.8C926.168 1095.91 919.523 1094.64 911.41 1093.1C895.191 1090.04 873.105 1085.91 849.664 1081.56C802.781 1072.86 750.469 1063.25 728.746 1059.42C723.066 1058.41 719.328 1057.79 718.687 1057.71C718.672 1057.72 718.66 1057.72 718.644 1057.73C718.551 1057.75 718.429 1057.78 718.273 1057.82C717.957 1057.89 717.504 1057.98 716.91 1058.11C715.726 1058.35 713.988 1058.7 711.758 1059.14C707.304 1060.01 700.89 1061.25 693.066 1062.74C677.414 1065.73 656.097 1069.74 633.449 1073.98C588.148 1082.46 537.504 1091.82 516.105 1095.56C510.789 1096.48 507.386 1097.06 506.078 1097.21C486.07 1146.44 475.113 1199.56 475.113 1254.96ZM721.32 1649.79C721.304 1649.78 704.519 1641.51 685.238 1629.24C666.676 1617.47 658.972 1609.95 658.351 1609.33C545.363 1524.41 473.586 1397.17 473.586 1254.96C473.586 1199.21 484.644 1145.74 504.824 1096.23C504.863 1096.12 504.926 1096.02 505.008 1095.93C505.148 1095.79 505.347 1095.71 505.551 1095.71H505.777C506.613 1095.62 510.211 1095.04 515.594 1094.09C521.554 1093.05 529.851 1091.56 539.707 1089.77C559.422 1086.19 585.379 1081.39 611.375 1076.55C663.344 1066.87 715.594 1056.97 718.246 1056.25L718.265 1056.24C718.418 1056.18 718.48 1056.18 718.527 1056.18C718.551 1056.18 718.566 1056.18 718.59 1056.18C719.199 1056.19 722.679 1056.8 728.832 1057.88C734.933 1058.96 743.488 1060.5 753.687 1062.35C774.078 1066.05 801.035 1071 828.027 1076C882.058 1085.99 936.058 1096.1 938.304 1096.79C938.379 1096.82 938.363 1096.77 938.617 1096.94C938.66 1097 938.804 1097.07 938.871 1097.34C958.789 1146.57 969.695 1199.64 969.695 1254.96C969.695 1397.19 897.863 1524.44 784.961 1609.33C784.945 1609.34 768.465 1623.5 753.41 1632.91C738.449 1642.31 721.992 1649.79 721.976 1649.8L721.644 1649.95" fill="#DEC16A"/>
<path d="M345.793 1529.98C245.23 1367.22 221.758 1141.71 289.988 951.058C307.34 902.648 326.402 860.699 351.004 819.328C354.504 812.59 366.75 795.711 358.078 792.539C354.211 790.68 339.086 805.219 334.019 811.308C281.789 874.129 242.566 943.93 212.789 1027.16C150.859 1200.23 157.461 1381.04 218.402 1536.71C231.449 1567.05 346.703 1540.3 345.793 1529.98Z" fill="#DEC16A"/>
<path d="M341.097 1530.23L343.445 1530.11L341.097 1530.23ZM226.597 1539.46C228.504 1540.87 231.101 1542.12 234.269 1543.12C240.609 1545.12 249.172 1546.05 258.617 1546.05C273.105 1546.05 289.695 1543.91 304.301 1540.91C318.875 1537.93 331.629 1533.98 337.969 1530.81C338.793 1530.41 339.508 1530 340.07 1529.65C278.699 1429 246.429 1305.2 246.422 1180.43C246.422 1102.01 259.179 1023.18 285.562 949.469C302.976 900.879 322.16 858.641 346.91 817.012C348.043 814.859 349.66 812.27 351.277 809.449C352.933 806.578 354.562 803.52 355.508 800.98C356.054 799.559 356.344 798.309 356.406 797.539C355.965 797.77 355.429 798.078 354.847 798.469C353.097 799.602 350.91 801.328 348.715 803.238C344.312 807.059 339.761 811.75 337.633 814.32C285.765 876.711 246.84 945.961 217.215 1028.75C187.972 1110.48 174.105 1193.93 174.105 1275.61C174.105 1365.77 190.996 1453.77 222.738 1534.89C223.48 1536.58 224.695 1538.07 226.597 1539.46ZM221.035 1547.05C218.039 1544.87 215.562 1542.03 214.082 1538.57L214.023 1538.43C181.824 1456.18 164.699 1366.98 164.699 1275.61C164.699 1192.87 178.746 1108.34 208.359 1025.58C238.297 941.898 277.808 871.551 330.402 808.301C332.711 805.531 336.566 801.539 340.738 797.75C344.969 793.961 349.179 790.48 353.191 788.648C354.383 788.141 355.601 787.699 357.273 787.672C358.035 787.672 358.929 787.789 359.836 788.172C361.679 788.859 363.394 790.18 364.422 791.871C365.492 793.609 365.824 795.488 365.824 797.18C365.808 799.691 365.16 801.988 364.312 804.289C363.453 806.57 362.347 808.82 361.187 810.988C358.883 815.281 356.289 819.328 355.179 821.5L355.047 821.73C330.613 862.82 311.691 904.449 294.414 952.641C268.426 1025.26 255.824 1103.03 255.824 1180.43C255.82 1304.73 288.34 1428.06 349.793 1527.51L345.793 1529.98L343.484 1530.1L345.793 1529.98L349.793 1527.51C350.215 1528.19 350.449 1528.95 350.488 1529.75C350.492 1529.8 350.496 1529.91 350.5 1530.11C350.484 1532 349.691 1533.39 348.937 1534.36C348.156 1535.35 347.297 1536.08 346.347 1536.77C344.449 1538.13 342.133 1539.32 339.32 1540.54C333.722 1542.95 326.179 1545.36 317.453 1547.55C300.011 1551.94 277.976 1555.44 258.617 1555.45C243.539 1555.37 230.082 1553.53 221.035 1547.05Z" fill="white"/>
<path d="M298.808 1534.36C173.351 1342.4 128.371 1147.54 183.594 922.609C197.117 867.718 214.683 815.16 237.062 765.929C239.543 760.941 250.953 738.8 243.769 736.078C236.883 730.578 224.308 751.218 218.984 758.5C168.687 834.308 130.703 920.64 108.762 1014.96C63.492 1209.45 92.5779 1371.48 180.129 1530.75C186.398 1546.11 323.304 1565.87 298.808 1534.36Z" fill="#CAAC6C"/>
<path d="M184.445 1528.89C184.476 1528.93 184.562 1529.04 184.703 1529.18C184.992 1529.47 185.519 1529.89 186.254 1530.36C187.719 1531.31 189.984 1532.41 192.797 1533.51C198.433 1535.72 206.258 1537.94 215.058 1539.86C232.664 1543.72 254.281 1546.44 271.176 1546.43C277.558 1546.43 283.269 1546.04 287.719 1545.24C292.168 1544.48 295.312 1543.13 296.371 1542.15C297.094 1541.45 296.984 1541.43 297.035 1541.1C297.066 1540.73 296.758 1539.36 295.097 1537.24L298.808 1534.36L302.746 1531.79L298.808 1534.36L295.097 1537.24L294.871 1536.93C204.605 1398.84 155.621 1258.81 155.633 1107.26C155.633 1047.31 163.289 985.579 179.027 921.481C192.609 866.352 210.265 813.512 232.781 763.981L232.851 763.84C233.816 761.891 236.011 757.59 237.953 752.891C239.914 748.282 241.476 743.059 241.406 740.692C241.41 740.469 241.394 740.282 241.379 740.129C241.258 740.051 241.136 739.981 241.023 739.891C240.894 739.93 240.695 740.001 240.445 740.122C239.926 740.372 239.187 740.852 238.367 741.532C236.719 742.879 234.758 745.001 232.84 747.372C228.992 752.122 225.324 757.782 222.828 761.211C172.871 836.532 135.148 922.301 113.344 1016.02C99.1521 1076.98 92.3201 1134.66 92.3201 1190.03C92.3318 1310.41 124.586 1419.92 184.25 1528.48L184.437 1528.88L184.445 1528.89ZM197.246 1544.98C190.578 1542.93 185.133 1540.79 181.176 1538.28C179.054 1536.86 177.176 1535.43 175.961 1532.93C115.711 1423.33 82.9021 1312.09 82.9138 1190.03C82.9138 1133.88 89.8474 1075.47 104.183 1013.89C126.254 919.02 164.461 832.172 215.066 755.891L215.191 755.719C216.836 753.469 219.445 749.52 222.422 745.489C225.426 741.442 228.742 737.29 232.39 734.27C234.844 732.309 237.488 730.54 241.183 730.45C242.851 730.43 244.656 730.969 246.121 731.969C247.789 732.782 249.144 734.251 249.816 735.739C250.613 737.45 250.804 739.102 250.812 740.692C250.742 745.84 248.734 751.321 246.644 756.489C244.566 761.512 242.273 766.012 241.316 767.942C219.09 816.84 201.617 869.11 188.16 923.731C172.59 987.149 165.039 1048.11 165.039 1107.26C165.054 1256.68 213.191 1394.68 302.652 1531.64C304.933 1534.64 306.41 1537.69 306.441 1541.1C306.492 1544.38 304.758 1547.43 302.488 1549.29C300.211 1551.22 297.472 1552.41 294.363 1553.34C288.144 1555.15 280.207 1555.82 271.176 1555.84C247.73 1555.81 217.176 1551.06 197.246 1544.98Z" fill="white"/>
<path fill-rule="evenodd" clip-rule="evenodd" d="M498.844 987.07C498.844 987.07 466.367 984.012 460.355 992.371C454.34 1000.81 322.394 947.43 322.394 947.43C322.394 947.43 453.719 969.469 493.269 979.488C533.363 989.699 498.844 987.07 498.844 987.07Z" fill="#221F1F"/>
<path d="M503.363 967.059C503.363 967.059 470.484 959.352 467.863 949.488C465.238 939.672 322.39 947.43 322.39 947.43C322.39 947.43 455.176 969.262 496 972.531C537.336 975.84 503.363 967.059 503.363 967.059Z" fill="#221F1F"/>
<path d="M1085.02 424.602C1090.13 429.59 1127.45 470.289 1125.19 519.02C1171.23 527.66 1251.93 518.84 1264.39 516.422C1322.89 505.059 1384.53 486.441 1402.83 476.289C1417.66 468.051 1419.27 459.25 1426.99 437.359C1438.07 406.051 1386.75 431.73 1331.79 453.629C1296.07 467.941 1272.59 477.031 1258.96 481.441C1259.25 478.602 1259.58 475.781 1259.8 472.898C1296.83 456.02 1409.72 409.18 1429.36 394.512C1451.16 378.199 1442.96 344.43 1434.03 342.328C1430.13 341.41 1335.29 396.039 1260.56 439.051C1260.35 436.5 1260.02 433.859 1259.69 431.121C1295.81 409.75 1335.91 385.441 1365.28 366.148C1449.23 311.059 1442.81 322.488 1436.18 284.672C1431 254.801 1406.4 283.891 1406.4 283.891L1379.03 307.07C1379.03 307.07 1301.64 368.871 1255.21 405.012C1254.66 402.488 1254.08 400.031 1253.46 397.5C1298.73 359.609 1371.92 296.02 1386.75 280.531C1407.09 259.32 1436.03 247.172 1415.51 209.488C1406.4 192.781 1402.61 182.699 1395.46 185.379C1389.01 195.988 1380.26 203.75 1374.94 210.73C1333.9 264.41 1283.97 320.211 1242.41 364.129C1241.25 361.34 1240.08 358.461 1238.77 355.578C1264.61 327.738 1289.76 299.379 1305.76 278.262C1383.11 176.328 1392.4 167.738 1381.72 144.891C1376.4 133.629 1354.42 103.871 1349.21 106.379C1349.65 121.031 1330.26 157.211 1301.53 199.941C1261.15 259.961 1236.73 296.141 1219.74 321.07C1217.34 317.441 1214.89 313.852 1212.23 310.281C1262.46 230.18 1326.65 124.129 1327.12 100.18C1327.49 81.7383 1323.55 68.6016 1295.92 49.3008C1286.08 42.4805 1266.69 34.9414 1258.82 37.7305C1278.21 68.1797 1253.86 135.449 1249.56 146.352C1230.53 194 1207.64 240.551 1186.35 280.121C1183.55 277.359 1180.7 274.629 1177.75 271.949C1202.46 219.961 1226.59 162.578 1234.69 126.859C1248.17 67.7383 1232.86 21.9805 1184.31 0C1163.32 153.891 1120.53 291.648 1062.5 401.641C1063.08 402.172 1063.7 402.77 1064.29 403.371C1068.29 407.359 1074.93 412.461 1085.02 424.602Z" fill="#C38810"/>
<path d="M358.222 424.602C353.156 429.59 315.797 470.289 318.129 519.02C272.019 527.66 191.355 518.84 178.89 516.422C120.426 505.059 58.7537 486.441 40.4568 476.289C25.656 468.051 23.9802 459.25 16.2537 437.359C5.17165 406.051 56.492 431.73 111.461 453.629C147.254 467.941 170.652 477.031 184.285 481.441C183.957 478.602 183.664 475.781 183.484 472.898C146.453 456.02 33.6013 409.18 13.9217 394.512C-7.91429 378.199 0.288839 344.43 9.25368 342.328C13.117 341.41 108.035 396.039 182.683 439.051C182.972 436.5 183.191 433.859 183.554 431.121C147.472 409.75 107.34 385.441 77.9959 366.148C-5.94553 311.059 0.43337 322.488 7.07009 284.672C12.3162 254.801 36.8865 283.891 36.8865 283.891L64.1834 307.07C64.1834 307.07 141.605 368.871 188.074 405.012C188.621 402.488 189.242 400.031 189.828 397.5C144.519 359.609 71.3631 296.02 56.492 280.531C36.156 259.32 7.28493 247.172 27.699 209.488C36.8865 192.781 40.6404 182.699 47.7459 185.379C54.2341 195.988 62.9802 203.75 68.3396 210.73C109.308 264.41 159.355 320.211 200.871 364.129C202 361.34 203.238 358.461 204.48 355.578C178.601 327.738 153.523 299.379 137.558 278.262C60.1404 176.328 50.8826 167.738 61.5974 144.891C66.8474 133.629 88.824 103.871 94.1092 106.379C93.6365 121.031 112.988 157.211 141.746 199.941C182.136 259.961 206.519 296.141 223.504 321.07C225.91 317.441 228.426 313.852 231.015 310.281C180.785 230.18 116.636 124.129 116.125 100.18C115.761 81.7383 119.699 68.6016 147.328 49.3008C157.168 42.4805 176.558 34.9414 184.504 37.7305C165.039 68.1797 189.386 135.449 193.765 146.352C212.715 194 235.605 240.551 256.969 280.121C259.699 277.359 262.578 274.629 265.496 271.949C240.781 219.961 216.652 162.578 208.562 126.859C195.148 67.7383 210.347 21.9805 258.933 0C279.929 153.891 322.722 291.648 380.746 401.641C380.164 402.172 379.547 402.77 378.996 403.371C374.988 407.359 368.39 412.461 358.222 424.602Z" fill="#C38810"/>
<path d="M353.191 1552.16C436.297 1674.62 570.574 1753.93 721.695 1753.93C872.379 1753.93 1006.08 1674.96 1089.47 1553.09C1089.83 1552.35 1090.35 1551.64 1090.86 1551.02L1093.92 1552.35C1116.95 1562.02 1147.06 1567.4 1178.95 1567.4C1204.03 1567.4 1227.98 1564.1 1248.24 1557.98C1148.66 1762.97 950.234 1902.71 721.695 1902.71C492.867 1902.71 294.324 1762.44 195 1557.09C215.269 1563.13 239.105 1566.45 264.109 1566.45C296.004 1566.45 326.074 1561.04 349.109 1551.38L351.48 1550.41C352.097 1550.93 352.609 1551.53 353.191 1552.16Z" fill="#006431"/>
<path d="M619.929 702.859C579.687 697.738 559.969 692.922 549.656 690.32C492.828 676.16 509.086 645.41 509.086 645.41C436.914 617.488 451.496 590.609 451.496 590.609C386.289 572.512 395.07 549.898 395.07 549.898C363.254 547.93 343.75 539.891 332.051 529.852C328.844 527.949 327.531 528.961 326.074 528.852C325.015 528.738 272.785 544.699 118.238 518.48C87.656 513.172 51.1365 505.852 42.3162 504.02C45.156 513.879 46.7263 518.84 52.1169 527.391C53.8669 530.16 55.6169 534.59 61.5232 542.461C66.3357 550.32 83.9412 556.621 95.7146 559.559C125.164 566.949 180.496 562.07 209.363 559.648C210.894 562.398 212.351 565.172 213.953 567.879C175.793 574.23 133.984 576.922 86.6013 578.531C94.2576 589.879 103.367 601.141 116.89 609.84C146.816 621.59 196.496 605.66 231.379 594.578C233.199 597.012 235.023 599.391 236.883 601.82C209.836 612.012 144.847 626.441 130.777 628.68C138.394 638.32 148.492 652.352 166.242 653.469C186.109 657.84 243.918 635.969 260.062 628.211C261.996 630.18 263.89 632.09 265.894 633.988C247.636 645.871 181.222 666.75 173.859 668.469C181.222 676.578 195.949 690.539 215.777 690.57C248.511 685.488 279.418 667.352 294.363 659.301C296.621 661.09 298.844 662.828 301.14 664.602C281.426 676.719 256.308 691.102 223.359 703.461C229.992 709.422 239.543 718.82 254.269 722.191C284.558 730.648 313.754 709.16 340.726 691.988C343.203 693.52 345.722 695.059 348.234 696.551C336.461 706.77 315.504 720.699 280.656 737.871C285.906 744.059 306.426 750.93 316.523 753.578C351.078 756.27 377.101 733.488 394.89 721.352L401.886 724.621C382.789 740.02 369.961 747.09 339.777 766C347.726 770.738 358.187 777.941 374.844 779C403.566 782.059 430.937 760.59 451.277 744.77C454.011 745.738 456.711 746.738 459.476 747.672C451.969 753.828 420.551 777.16 399.117 789.52C399.738 789.301 416.32 803.371 444.172 802.129C494.652 804.109 543.605 762.41 543.605 762.41L619.929 702.859Z" fill="#9F5A08"/>
<path d="M899.789 762.41C899.789 762.41 948.738 804.109 999.148 802.129C1027.07 803.371 1043.58 789.301 1044.2 789.52C1022.84 777.16 991.422 753.828 983.914 747.672C986.683 746.738 989.344 745.738 992.078 744.77C1012.42 760.59 1039.83 782.059 1068.51 779C1085.17 777.941 1095.67 770.738 1103.61 766.012C1073.4 747.09 1060.6 740.02 1041.5 724.621L1048.5 721.352C1066.29 733.488 1092.28 756.27 1126.87 753.578C1136.96 750.93 1157.49 744.059 1162.73 737.871C1127.89 720.699 1106.82 706.77 1095.08 696.551C1097.64 695.059 1100.11 693.531 1102.63 691.988C1129.56 709.16 1158.83 730.648 1189.12 722.191C1203.85 718.82 1213.4 709.422 1219.96 703.461C1187.01 691.102 1161.97 676.719 1142.25 664.602C1144.51 662.828 1146.77 661.09 1148.96 659.301C1163.9 667.352 1194.85 685.488 1227.54 690.57C1247.37 690.539 1262.17 676.578 1269.53 668.469C1262.17 666.75 1195.76 645.871 1177.46 633.988C1179.5 632.09 1181.4 630.18 1183.33 628.211C1199.47 635.969 1257.28 657.84 1277.11 653.469C1294.9 652.352 1304.96 638.32 1312.61 628.68C1298.55 626.441 1233.56 612.012 1206.47 601.82C1208.37 599.391 1210.19 597.012 1211.98 594.578C1246.86 605.66 1296.58 621.59 1326.5 609.84C1340.02 601.141 1349.14 589.879 1356.72 578.531C1309.37 576.922 1267.6 574.23 1229.44 567.879C1231.04 565.172 1232.5 562.398 1233.96 559.648C1262.9 562.07 1318.23 566.949 1347.6 559.559C1359.38 556.621 1377.06 550.32 1381.87 542.461C1387.74 534.59 1389.52 530.16 1391.27 527.391C1396.63 518.84 1398.24 513.879 1401.08 504.02C1392.22 505.852 1355.7 513.172 1325.12 518.48C1170.61 544.699 1118.37 528.738 1117.24 528.852C1115.79 528.961 1114.55 527.949 1111.34 529.852C1099.6 539.891 1080.14 547.93 1048.32 549.898C1048.32 549.898 1057.1 572.512 991.859 590.609C991.859 590.609 1006.44 617.488 934.269 645.41C934.269 645.41 950.523 676.16 893.738 690.32C883.566 692.891 854.883 699.051 815.808 704.148L899.789 762.41Z" fill="#9F5A08"/>
<path d="M626.672 695.879C607.937 693.64 584.425 689.898 560.953 685.269C500.011 673.129 520.64 640.468 520.64 640.468C440.16 608.578 462.613 584.449 462.613 584.449C385.414 563.75 407.136 542.129 407.136 542.129C358.734 540.308 326.437 520.828 327.168 511.371C327.461 493.34 333.8 466.879 360.554 436.988C381.332 413.699 385.886 411.718 396.894 430.8C453.644 528.5 523.047 601 600.027 638.789C604.617 640.328 611.437 642.879 621.058 646.558C630.351 649.691 639.027 649.218 646.609 646.91L626.672 695.879Z" fill="#DEC16A"/>
<path fill-rule="evenodd" clip-rule="evenodd" d="M323.23 1666.12L328.078 1671.45L367.226 1637.93L360.664 1630.66L323.23 1666.12ZM311.019 1675.38L317.543 1682.65L324.469 1676.46L317.91 1669.19" fill="white"/>
<path fill-rule="evenodd" clip-rule="evenodd" d="M338.539 1705.63L345.32 1711.98L368.062 1687.5L368.211 1687.65L356.109 1722.07L363.726 1729.11L375.719 1691.88L408.449 1679.52L401.707 1673.18L370.25 1685.48L370.105 1685.33L390.844 1663.1L384.101 1656.79" fill="white"/>
<path d="M384.285 1745.98L404.367 1761.15L409.066 1754.95L396.386 1745.36L409.98 1727.29L421.933 1736.36L426.601 1730.09L414.644 1721.09L427.183 1704.38L439.941 1713.96L444.605 1707.77L424.488 1692.62" fill="white"/>
<path d="M458.531 1795.7L480.73 1807.59L484.34 1800.68L470.34 1793.24L480.91 1773.27L494.179 1780.32L497.789 1773.47L484.554 1766.39L494.398 1747.93L508.429 1755.39L512.113 1748.57L489.844 1736.69" fill="white"/>
<path fill-rule="evenodd" clip-rule="evenodd" d="M505.515 1818.74L515.613 1822.84L519.765 1812.72L509.633 1808.59L505.515 1818.74ZM526.472 1766.36L536.644 1770.48L540.761 1760.33L530.629 1756.26" fill="white"/>
<path d="M567.988 1841.5L575.496 1843.56L612.422 1783.09L604.875 1781.03L567.988 1841.5Z" fill="white"/>
<path d="M619.711 1853.36L628.824 1854.68L641.945 1831.75L647.519 1857.28L657.254 1858.67L648.324 1823.29L666.074 1792.42L656.89 1791.07L645.008 1813.18L639.683 1788.68L629.988 1787.3L638.808 1821.02" fill="white"/>
<path fill-rule="evenodd" clip-rule="evenodd" d="M683.789 1861.33L693.121 1861.51L696.472 1844.52L710.871 1844.74L713.64 1861.84L722.863 1862.04L710.472 1794.95L699.719 1794.73L683.789 1861.33ZM704.347 1804.67H704.527L709.703 1836.95L697.929 1836.76L704.347 1804.67Z" fill="white"/>
<path fill-rule="evenodd" clip-rule="evenodd" d="M750.781 1860.58L759.969 1859.8L757.453 1830.75L760.59 1830.53C766.676 1830 767.914 1831.53 768.461 1837.84L769.773 1852.89C770.027 1855.53 770.32 1857.17 771.414 1858.74L780.09 1858.03C779.285 1855.28 778.992 1852 778.777 1849.57L777.535 1835.09C776.953 1828.82 774.547 1825.75 768.242 1825.68L768.207 1825.48C775.566 1822.51 776.445 1818.52 775.64 1809.59C774.367 1795.03 772.652 1791.56 759.203 1792.71L744.949 1793.95L750.781 1860.58ZM754.793 1800.93L759.238 1800.51C764.961 1800 765.617 1800.89 766.457 1810.79C767.328 1820.7 766.457 1822.23 759.129 1822.84L756.761 1823.05L754.793 1800.93Z" fill="white"/>
<path fill-rule="evenodd" clip-rule="evenodd" d="M811.07 1853.6L820.109 1851.61L814.058 1823.22L817.195 1822.55C823.097 1821.27 824.594 1822.69 825.867 1828.85L829.039 1843.59C829.586 1846.24 830.097 1847.8 831.336 1849.26L839.863 1847.48C838.734 1844.86 838.078 1841.57 837.531 1839.22L834.543 1825.04C833.23 1818.88 830.461 1816.15 824.156 1816.82L824.117 1816.64C831.043 1812.8 831.41 1808.73 829.586 1799.93C826.523 1785.62 824.41 1782.38 811.215 1785.22L797.219 1788.16L811.07 1853.6ZM807.863 1793.84L812.199 1792.95C817.777 1791.75 818.508 1792.57 820.621 1802.24C822.66 1812.01 821.929 1813.58 814.824 1815.11L812.453 1815.6L807.863 1793.84Z" fill="white"/>
<path fill-rule="evenodd" clip-rule="evenodd" d="M866.656 1840.01L875.476 1837.18L873.105 1820.02L886.812 1815.57L895.051 1830.82L903.797 1827.92L870.191 1768.57L859.984 1771.9L866.656 1840.01ZM867.601 1779.77L867.75 1779.7L883.203 1808.55L872.015 1812.2L867.601 1779.77Z" fill="white"/>
<path d="M961.898 1802.12L968.676 1798.32L953.261 1729.2L946.441 1733.01L961.898 1802.12Z" fill="white"/>
<path d="M1005.78 1776.64L1012.13 1772.12L989.527 1705.05L983.148 1709.48L1005.78 1776.64Z" fill="white"/>
<path fill-rule="evenodd" clip-rule="evenodd" d="M1048.68 1744.77L1055.83 1738.82L1034.32 1713.21L1034.47 1713.11L1067.13 1729.34L1075.07 1722.66L1039.54 1706.2L1031.26 1672.16L1024.15 1678.1L1032.54 1710.83L1032.39 1710.94L1012.82 1687.61L1005.71 1693.55" fill="white"/>
<path d="M1094.83 1703.1L1112 1684.71L1106.27 1679.41L1095.45 1691.05L1078.9 1675.64L1089.14 1664.7L1083.49 1659.4L1073.25 1670.33L1057.94 1656.05L1068.77 1644.4L1063.15 1639.1L1045.95 1657.52" fill="white"/>
<path d="M1097.49 1529.98C1197.98 1367.22 1221.49 1141.71 1153.26 951.058C1135.91 902.648 1116.92 860.699 1092.24 819.328C1088.78 812.59 1076.49 795.711 1085.17 792.539C1089.03 790.68 1104.2 805.219 1109.23 811.308C1161.49 874.129 1200.71 943.93 1230.49 1027.16C1292.42 1200.23 1285.79 1381.04 1224.92 1536.71C1211.83 1567.05 1096.54 1540.3 1097.49 1529.98Z" fill="#DEC16A"/>
<path d="M1216.71 1539.46C1218.61 1538.07 1219.82 1536.6 1220.57 1534.92C1252.28 1453.79 1269.16 1365.78 1269.16 1275.61C1269.16 1193.93 1255.31 1110.47 1226.07 1028.75C1196.44 945.961 1157.52 876.711 1105.6 814.309C1102.64 810.691 1094.82 802.93 1089.42 799.16C1088.45 798.461 1087.53 797.898 1086.84 797.539C1086.91 798.309 1087.2 799.559 1087.74 800.969C1088.38 802.648 1089.31 804.59 1090.36 806.531C1092.42 810.391 1094.83 814.141 1096.34 817.02C1121.16 858.648 1140.27 900.891 1157.68 949.469C1184.06 1023.18 1196.82 1101.99 1196.82 1180.41C1196.81 1305.19 1164.53 1429 1103.2 1529.66C1104.25 1530.3 1105.79 1531.09 1107.68 1531.9C1112.55 1534.01 1119.75 1536.33 1128.12 1538.44C1144.87 1542.66 1166.43 1546.05 1184.66 1546.05C1198.85 1546.12 1211.02 1543.79 1216.71 1539.46ZM1135.63 1549.82C1120.11 1546.52 1107.04 1542.48 1099.67 1538.48C1097.53 1537.27 1095.81 1536.18 1094.34 1534.36C1093.59 1533.39 1092.8 1532 1092.78 1530.11C1092.78 1529.95 1092.78 1529.71 1092.84 1529.3C1092.92 1528.68 1093.16 1528.05 1093.49 1527.52C1154.9 1428.06 1187.42 1304.72 1187.41 1180.41C1187.41 1103.01 1174.81 1025.25 1148.83 952.641C1131.55 904.449 1112.7 862.82 1088.2 821.738L1088.06 821.48C1087.25 819.891 1085.57 817.16 1083.83 814.129C1082.07 811.078 1080.23 807.699 1078.94 804.281C1078.09 801.988 1077.44 799.691 1077.42 797.172C1077.42 795.488 1077.76 793.602 1078.83 791.871C1079.85 790.172 1081.57 788.859 1083.41 788.172C1084.32 787.789 1085.21 787.672 1085.97 787.672C1087.64 787.699 1088.86 788.141 1090.06 788.648C1091.24 789.172 1092.38 789.828 1093.54 790.59C1095.86 792.102 1098.3 794.039 1100.72 796.148C1105.56 800.359 1110.22 805.141 1112.84 808.301C1165.47 871.551 1204.99 941.898 1234.92 1025.58C1264.53 1108.33 1278.57 1192.86 1278.57 1275.61C1278.57 1366.98 1261.45 1456.18 1229.3 1538.42L1229.23 1538.57C1227.75 1542.03 1225.27 1544.87 1222.27 1547.05C1219.27 1549.25 1215.74 1550.86 1211.85 1552.09C1204.06 1554.52 1194.72 1555.44 1184.66 1555.45C1168.78 1555.45 1151.1 1553.08 1135.63 1549.82Z" fill="white"/>
<path d="M1144.47 1534.36C1269.89 1342.4 1314.87 1147.54 1259.65 922.609C1246.13 867.718 1228.6 815.16 1206.18 765.929C1203.7 760.941 1192.26 738.8 1199.47 736.078C1206.33 730.578 1218.94 751.218 1224.26 758.5C1274.56 834.308 1312.54 920.64 1334.48 1014.96C1379.75 1209.45 1350.67 1371.48 1263.08 1530.75C1256.88 1546.11 1119.98 1565.87 1144.47 1534.36Z" fill="#CAAC6C"/>
<path d="M1148.18 1537.25C1146.52 1539.36 1146.21 1540.73 1146.24 1541.1C1146.29 1541.44 1146.19 1541.45 1146.91 1542.15C1147.62 1542.78 1149.24 1543.64 1151.57 1544.32C1156.25 1545.72 1163.6 1546.44 1172.1 1546.43C1186.19 1546.43 1203.58 1544.55 1219.17 1541.68C1234.71 1538.85 1248.69 1534.87 1255.3 1531.33C1257.16 1530.36 1258.37 1529.39 1258.68 1529C1258.73 1528.93 1258.75 1528.91 1258.76 1528.9L1258.96 1528.48C1318.65 1419.91 1350.91 1310.4 1350.92 1190.01C1350.92 1134.65 1344.09 1076.97 1329.9 1016.02C1308.1 922.301 1270.37 836.54 1220.42 761.211C1218.66 758.79 1216.35 755.321 1213.77 751.79C1211.19 748.239 1208.31 744.649 1205.82 742.372C1204.21 740.852 1202.72 740.001 1202.22 739.899C1202.1 739.981 1201.98 740.059 1201.85 740.141C1201.83 740.29 1201.82 740.481 1201.82 740.7C1201.75 743.059 1203.32 748.282 1205.28 752.899C1207.23 757.59 1209.43 761.891 1210.39 763.84L1210.46 763.981C1233.02 813.512 1250.64 866.352 1264.22 921.489C1279.96 985.579 1287.61 1047.31 1287.61 1107.26C1287.62 1258.81 1238.65 1398.84 1148.41 1536.93L1148.18 1537.25ZM1153.89 1554.5C1148.63 1553.51 1144.22 1552.15 1140.79 1549.29C1138.52 1547.43 1136.79 1544.38 1136.84 1541.1C1136.87 1537.68 1138.35 1534.62 1140.64 1531.63C1230.07 1394.67 1278.19 1256.69 1278.21 1107.26C1278.2 1048.11 1270.66 987.161 1255.09 923.731C1241.63 869.102 1224.19 816.852 1201.93 767.942C1200.98 766.02 1198.68 761.52 1196.59 756.501C1194.5 751.329 1192.49 745.852 1192.42 740.7C1192.43 739.11 1192.62 737.45 1193.42 735.739C1194.09 734.251 1195.45 732.782 1197.11 731.969C1198.58 730.981 1200.38 730.43 1202.05 730.45C1205.74 730.54 1208.39 732.309 1210.84 734.27C1213.28 736.29 1215.54 738.801 1217.7 741.45C1221.98 746.731 1225.84 752.7 1228.06 755.719L1228.18 755.891C1278.79 832.172 1316.99 919.032 1339.06 1013.89C1353.4 1075.46 1360.33 1133.87 1360.33 1190.01C1360.34 1312.07 1327.52 1423.32 1267.25 1532.93C1266.04 1535.43 1264.17 1536.86 1262.05 1538.27C1259.79 1539.73 1257.06 1541.02 1253.87 1542.27C1247.52 1544.76 1239.34 1547.05 1230.21 1549.05C1211.95 1553.04 1189.96 1555.83 1172.1 1555.84C1165.33 1555.84 1159.16 1555.44 1153.89 1554.5Z" fill="white"/>
<path d="M813.804 1520.47C811.289 1527.87 804.511 1529.37 804.511 1529.37C788.472 1534.58 780.527 1539.13 780.527 1539.13C774.511 1542.27 777.937 1546.26 777.937 1546.26C780.16 1548.88 794.086 1546.68 794.086 1546.68C809.683 1545.11 813.183 1542.58 813.183 1542.58C819.597 1538.7 839.902 1511.89 839.902 1511.89C865.304 1480.73 865.672 1452.73 864.433 1447.06C864.359 1446.81 864.285 1446.54 864.215 1446.28C864.215 1446.21 864.215 1445.97 863.922 1445.82C863.629 1445.64 863.304 1445.72 863.304 1445.72L841.394 1449.23C841.394 1449.23 841.031 1449.27 840.886 1449.45C840.668 1449.59 840.593 1449.85 840.523 1449.98C835.601 1463.03 828.711 1481.29 828.711 1481.29L813.804 1520.47Z" fill="#731705"/>
<path d="M761.136 1512.16C760.988 1512.16 760.843 1512.13 760.769 1512.16C759.422 1512.16 758.363 1513.27 758.437 1514.49C758.437 1515.26 758.84 1515.88 759.386 1516.26C759.82 1516.52 759.82 1517.08 759.75 1517.26C758.8 1519.21 757.855 1520.78 756.98 1521.68C752.238 1526.16 745.679 1527.76 736.566 1534.78C736.566 1534.78 733.726 1536.75 735.582 1539.63C737.332 1542.48 744.297 1539.32 744.297 1539.32C744.297 1539.32 756.324 1533.32 763.613 1532.9C763.613 1532.9 770.211 1532.36 772.836 1527.49C772.836 1527.49 774.109 1524.43 776.59 1520.11C776.66 1520 776.953 1519.76 777.316 1519.84C778.633 1520.14 779.941 1519.43 780.234 1518.16C780.453 1517.34 780.16 1516.52 779.613 1515.99C779.504 1515.91 779.359 1515.63 779.504 1515.44C779.797 1515.02 780.015 1514.62 780.308 1514.24C780.453 1514.06 780.707 1514.06 780.816 1514.17C781 1514.24 781.144 1514.35 781.398 1514.39C782.675 1514.66 783.953 1513.91 784.316 1512.71C784.535 1511.81 784.207 1510.99 783.59 1510.43C783.222 1510.21 783.441 1509.89 783.441 1509.89L784.172 1508.9C784.172 1508.9 784.355 1508.57 784.754 1508.75C784.898 1508.79 785.047 1508.86 785.226 1508.9C786.504 1509.21 787.816 1508.46 788.105 1507.22C788.324 1506.44 788.035 1505.62 787.523 1505.05C787.414 1504.94 787.121 1504.72 787.449 1504.27C797.293 1490.05 814.133 1463.06 808.629 1449.18C808.629 1449.18 808.445 1448.7 808.008 1448.07C807.535 1447.35 806.406 1447.66 806.406 1447.66L780.707 1452.91C780.707 1452.91 779.722 1453.07 779.359 1453.93C775.789 1464.3 771.633 1477.66 767.476 1493.64C767.476 1493.64 766.968 1495.8 766.093 1498.89C766.019 1499.13 765.875 1499.46 765.179 1499.53C763.867 1499.61 762.812 1500.63 762.886 1501.92C762.886 1502.63 763.246 1503.23 763.797 1503.69C764.777 1504.02 764.343 1504.72 764.343 1504.72L764.195 1505.29C764.195 1505.29 764.015 1505.89 763.246 1505.8C763.175 1505.77 763.101 1505.77 763.101 1505.8C761.718 1505.84 760.734 1506.89 760.769 1508.19C760.808 1508.99 761.281 1509.64 761.937 1510.06C762.336 1510.29 762.336 1510.81 762.265 1511.03C762.191 1511.21 762.117 1511.41 762.047 1511.63C761.972 1511.89 761.57 1512.2 761.136 1512.16Z" fill="#731705"/>
<path d="M876.605 1168.28C875.218 1167.24 872.16 1161.37 850.437 1159.22C850.437 1159.22 844.785 1159.48 846.062 1147.5C846.062 1147.5 846.172 1142.95 851.82 1139.57C851.82 1139.57 859.402 1136.44 861.004 1130.73C861.004 1130.73 861.371 1129.66 861.59 1128.02C861.988 1125.47 862.316 1118.53 854.734 1114.43C853.058 1113.75 853.058 1114.39 851.965 1113.82C851.238 1113.42 851.09 1112.82 850.508 1112.49C850.508 1112.49 849.488 1112.15 848.758 1112.53C848.758 1112.53 848.176 1113 847.156 1112.75C847.156 1112.75 846.207 1112.46 846.062 1111.54C845.914 1110.65 844.566 1109.91 843.289 1110.72C843.289 1110.72 842.633 1111.44 841.652 1111.29C841.652 1111.29 840.738 1111.22 840.523 1110.18C840.523 1110.18 840.23 1108.72 838.515 1108.76C838.515 1108.76 837.461 1108.72 836.84 1109.61C836.84 1109.61 836.437 1110.51 835.601 1110.54H835.308C835.054 1110.51 834.543 1110.29 834.398 1109.5C834.398 1109.5 833.851 1107.97 831.992 1108.05C831.992 1108.05 830.172 1108.08 829.66 1109.8C829.66 1109.8 829.73 1110.93 829.004 1111.22C829.004 1111.22 828.054 1111.58 827.761 1110.58C827.761 1110.58 827.109 1108.87 824.922 1108.94C824.922 1108.94 822.222 1108.98 822.078 1111.47C822.078 1111.47 821.64 1114.06 822.879 1119.8C823.172 1124.25 822.148 1125.18 822.148 1125.18C816.281 1131.77 815.664 1136.26 815.664 1138.05V1138.57C815.808 1140 816.683 1146.79 821.058 1148.98C821.058 1148.98 823.097 1150.14 825.722 1149.11L828.054 1147.94C828.054 1147.94 830.535 1146.79 830.754 1148.39C830.972 1150.55 831.261 1154.59 830.023 1156.71C830.023 1156.71 829.511 1157.91 826.523 1157.62C826.523 1157.62 808.445 1154.88 795.543 1173.11C795.543 1173.11 792.187 1177.28 790.551 1179.78C790.187 1180.53 790.328 1181.05 791.168 1181.13C792.918 1181.2 796.527 1181.38 798.968 1181.84C801.664 1182.24 804.472 1182.91 805.785 1183.3C806.551 1183.52 806.402 1184.12 806.402 1184.12L806.039 1186.27C806.039 1186.27 806.113 1186.98 805.383 1186.76C803.562 1186.16 797.801 1184.41 788.945 1184.52C788.945 1184.52 773.488 1184.48 772.836 1193.63C772.836 1193.63 772.508 1197.7 777.937 1201.9C777.937 1201.9 778.484 1202.43 779.648 1203.18C779.066 1204.11 778.41 1205.49 777.902 1206.95C777.863 1206.98 777.863 1207.06 777.828 1207.1C777.023 1209.16 776.441 1211.09 776.152 1212.22C775.64 1214.3 774.363 1215.17 773.488 1215.21C772.578 1215.24 772.07 1213.72 772.07 1213.72C768.715 1205.64 754.539 1192.1 750.492 1188.4C750.343 1188.22 750.09 1187.91 749.578 1187.84C749.105 1187.76 748.484 1188.18 748.484 1188.18L736.058 1195.84C736.058 1195.84 735.402 1196.23 735.254 1196.66C735.109 1197.17 735.328 1197.51 735.437 1197.66C748.961 1222.7 754.683 1225.91 754.683 1225.91C754.683 1225.91 763.027 1234.98 773.125 1234.62C779.105 1234.45 787.523 1225.54 793.539 1218.38C795.836 1215.83 798.605 1212.58 800.133 1210.43C801.008 1210.51 801.957 1210.65 803.051 1210.72C803.414 1210.72 803.562 1210.91 803.488 1211.13C802.976 1215.57 798.605 1254.47 801.883 1288.95C801.883 1288.95 803.414 1319.67 808.226 1327.22C808.734 1328 809.613 1327.32 809.613 1327.32L839.863 1306.17C839.863 1306.17 840.156 1306 840.265 1305.6C841.105 1302.18 848.758 1271.94 852.476 1251.44C852.476 1251.44 859.402 1219.68 866.183 1203.14C866.183 1203.14 866.328 1202.63 866.656 1202.43C867.054 1202.18 867.605 1202.1 867.64 1202.07C869.679 1201.72 874.347 1200.76 879.047 1198.48C879.047 1198.48 883.82 1196.4 888.488 1192.32C888.488 1192.32 894.828 1187.18 894.648 1181.88C894.648 1181.88 894.722 1174.93 882.949 1175.82C882.801 1175.86 882.363 1175.86 882.109 1175.44C881.125 1174 877.843 1169.17 876.605 1168.28Z" fill="#731705"/>
<path d="M721.113 1180.38C721.113 1180.38 723.336 1181.27 725.703 1183.06C725.703 1183.06 727.238 1184.66 728.84 1183.06C731.683 1180.42 734.965 1177.1 736.641 1175.26C738.898 1172.87 738.316 1169.77 735.437 1166.68C735.437 1166.68 730.301 1161.64 726.687 1162.21C726.687 1162.21 724.867 1162.86 723.812 1163.47C723.812 1163.47 723.156 1163.81 720.82 1163.69C720.82 1163.69 717.469 1163.39 713.605 1167.06C713.605 1167.06 709.34 1171.76 712.109 1176.01C712.109 1176.01 713.312 1178.28 716.738 1179.38C718.855 1180.07 721.113 1180.38 721.113 1180.38Z" fill="#731705"/>
<path d="M870.554 1204.49C869.789 1204.64 869.535 1204.89 869.644 1205.57C870.191 1210.01 872.414 1215.35 872.414 1215.35C875.222 1223.41 888.051 1238.94 888.051 1238.94C892.972 1245.24 891.512 1254.06 891.512 1254.06C891.222 1261.37 892.426 1275.11 892.426 1275.11C893.519 1286.8 897.453 1296.13 898.695 1298.77C899.094 1299.73 900.371 1299.59 900.371 1299.59L911.672 1298.24C911.672 1298.24 912.324 1298.2 912.617 1297.91C912.984 1297.66 913.094 1297.05 913.094 1296.91C913.785 1290.44 914.004 1272.3 914.004 1272.3C913.566 1260.99 905.258 1242.29 905.258 1242.29C902.777 1237.11 902.484 1231.1 902.484 1231.1C902.523 1227.6 900.336 1212.89 900.336 1212.89C898.547 1202.43 894.574 1196.31 892.972 1194.27C892.57 1193.7 892.062 1193.66 891.512 1194.16C888.707 1196.51 885.207 1198.77 881.273 1200.68C877.664 1202.43 873.98 1203.71 870.554 1204.49Z" fill="#731705"/>
<path d="M902.922 1304.54C902.703 1305.18 902.047 1305.22 902.047 1305.22L901.246 1305.35C900.152 1305.46 899.715 1306.2 899.644 1308.48C899.57 1310.8 900.152 1322.48 905.691 1325.83C905.691 1325.83 908.754 1328.37 912.398 1328.22C912.398 1328.22 916.922 1328.15 920.855 1323.06C920.855 1323.06 923.699 1320.6 920.965 1316.08C920.965 1316.08 919.836 1314.04 917.609 1312.69C913.566 1310.23 914.406 1306.35 914.406 1306.35C914.406 1306.35 914.66 1304.75 911.379 1304.44C910.578 1304.32 910.285 1303.93 910.211 1303.47C909.738 1301.83 908.683 1300.86 906.824 1300.9C904.672 1301.01 902.851 1302.58 902.922 1304.4V1304.54Z" fill="#731705"/>
<path d="M845.914 1313.33L816.027 1334.12C814.933 1335.16 814.566 1335.35 815.226 1338.33C815.808 1341.03 814.566 1349.73 811.363 1356.1C808.152 1362.52 802.539 1372.56 796.344 1391.11C791.789 1404.85 789.273 1413.91 788.766 1422.77C788.766 1422.77 788.324 1424.25 788.98 1426.27C788.98 1426.27 789.785 1426.83 789.019 1428.58C789.019 1428.58 787.051 1432.88 783.769 1441.54C783.769 1441.58 783.516 1442.14 783.73 1442.39C783.914 1442.62 784.535 1442.47 784.535 1442.47L804.508 1438.28C804.508 1438.28 804.871 1438.24 805.094 1437.95C805.457 1437.73 805.566 1437.44 805.601 1437.31C806.004 1435.78 806.769 1434.21 808.082 1432.64C808.082 1432.64 817.195 1422.68 820.144 1418.25C820.144 1418.25 828.203 1409.25 834.836 1387.91C834.836 1387.91 845.332 1360.53 856.961 1357.07C868.586 1353.57 876.461 1346.54 870.953 1332.89C870.953 1332.89 866.73 1319.56 854.808 1314.41C854.808 1314.41 848.613 1311.41 845.914 1313.33Z" fill="#731705"/>
<path d="M863.375 1435.18C862.972 1430.22 866.07 1421.57 866.07 1421.57C866.07 1421.57 868.879 1413.09 868.804 1402.16C868.804 1391.4 860.531 1366.36 858.308 1359.91C858.269 1359.8 858.164 1359.6 857.945 1359.49C857.726 1359.35 857.394 1359.42 857.215 1359.49C847.008 1363.72 837.75 1387.98 836.144 1392.61C835.855 1393.43 835.929 1393.92 836.004 1394.18C838.336 1405.58 844.312 1421.98 844.312 1421.98C846.937 1431.19 845.332 1436.84 845.332 1436.84C845.332 1436.95 845.187 1437.31 844.929 1437.87C844.859 1438.13 845.55 1438.52 845.55 1438.52L862.828 1435.98C862.828 1435.98 863.121 1435.95 863.265 1435.78C863.41 1435.6 863.375 1435.27 863.375 1435.18Z" fill="#731705"/>
<path d="M629.48 1520.47C631.957 1527.87 638.812 1529.37 638.812 1529.37C654.812 1534.58 662.757 1539.13 662.757 1539.13C668.734 1542.27 665.343 1546.26 665.343 1546.26C663.05 1548.88 649.234 1546.68 649.234 1546.68C633.632 1545.11 630.062 1542.58 630.062 1542.58C623.683 1538.7 603.382 1511.89 603.382 1511.89C578.011 1480.73 577.574 1452.73 578.851 1447.06C578.886 1446.81 578.921 1446.54 578.996 1446.28C578.996 1446.21 579.07 1445.97 579.324 1445.82C579.617 1445.64 579.941 1445.72 579.941 1445.72L601.851 1449.23C601.851 1449.23 602.179 1449.27 602.394 1449.45C602.578 1449.59 602.726 1449.85 602.726 1449.98C607.609 1463.03 614.535 1481.29 614.535 1481.29L629.48 1520.47Z" fill="#731705"/>
<path d="M682.113 1512.16C682.258 1512.16 682.402 1512.13 682.476 1512.16C683.863 1512.16 684.847 1513.27 684.808 1514.49C684.773 1515.26 684.445 1515.88 683.863 1516.26C683.426 1516.52 683.426 1517.08 683.496 1517.26C684.445 1519.21 685.394 1520.78 686.265 1521.68C690.969 1526.16 697.566 1527.76 706.679 1534.78C706.679 1534.78 709.484 1536.75 707.66 1539.63C705.914 1542.48 698.949 1539.32 698.949 1539.32C698.949 1539.32 686.922 1533.32 679.668 1532.9C679.668 1532.9 673 1532.36 670.41 1527.49C670.41 1527.49 669.101 1524.43 666.656 1520.11C666.586 1520 666.367 1519.76 665.929 1519.84C664.617 1520.14 663.379 1519.43 663.012 1518.16C662.832 1517.34 663.051 1516.52 663.668 1515.99C663.742 1515.91 663.922 1515.63 663.742 1515.44C663.449 1515.02 663.23 1514.62 662.937 1514.24C662.867 1514.06 662.574 1514.06 662.465 1514.17C662.32 1514.24 662.066 1514.35 661.847 1514.39C660.605 1514.66 659.293 1513.91 658.929 1512.71C658.711 1511.81 659.004 1510.99 659.695 1510.43C660.023 1510.21 659.804 1509.89 659.804 1509.89L659.074 1508.9C659.074 1508.9 658.929 1508.57 658.492 1508.75C658.347 1508.79 658.199 1508.86 658.054 1508.9C656.742 1509.21 655.504 1508.46 655.14 1507.22C654.957 1506.44 655.176 1505.62 655.722 1505.05C655.867 1504.94 656.16 1504.72 655.797 1504.27C645.953 1490.05 629.187 1463.06 634.617 1449.18C634.617 1449.18 634.801 1448.7 635.238 1448.07C635.746 1447.35 636.84 1447.66 636.84 1447.66L662.539 1452.91C662.539 1452.91 663.523 1453.07 663.887 1453.93C667.422 1464.3 671.652 1477.66 675.769 1493.64C675.769 1493.64 676.316 1495.8 677.226 1498.89C677.301 1499.13 677.445 1499.46 678.101 1499.53C679.414 1499.61 680.433 1500.63 680.363 1501.92C680.363 1502.63 679.996 1503.23 679.449 1503.69C678.539 1504.02 678.902 1504.72 678.902 1504.72L679.121 1505.29C679.121 1505.29 679.195 1505.89 679.996 1505.8C680.07 1505.77 680.144 1505.77 680.215 1505.8C681.527 1505.84 682.551 1506.89 682.476 1508.19C682.476 1508.99 682.039 1509.64 681.347 1510.06C680.945 1510.29 680.871 1510.81 680.98 1511.03C681.09 1511.21 681.164 1511.41 681.238 1511.63C681.308 1511.89 681.676 1512.2 682.113 1512.16Z" fill="#731705"/>
<path d="M566.64 1168.28C568.027 1167.24 571.05 1161.37 592.847 1159.22C592.847 1159.22 598.496 1159.48 597.222 1147.5C597.222 1147.5 597.113 1142.95 591.464 1139.57C591.464 1139.57 583.918 1136.44 582.312 1130.73C582.312 1130.73 581.91 1129.66 581.695 1128.02C581.222 1125.47 580.929 1118.53 588.511 1114.43C590.187 1113.75 590.261 1114.39 591.281 1113.82C592.011 1113.42 592.156 1112.82 592.773 1112.49C592.773 1112.49 593.757 1112.15 594.488 1112.53C594.488 1112.53 595.144 1113 596.054 1112.75C596.054 1112.75 597.074 1112.46 597.222 1111.54C597.367 1110.65 598.679 1109.91 599.953 1110.72C599.953 1110.72 600.613 1111.44 601.632 1111.29C601.632 1111.29 602.578 1111.22 602.726 1110.18C602.726 1110.18 603.015 1108.72 604.765 1108.76C604.765 1108.76 605.785 1108.72 606.406 1109.61C606.406 1109.61 606.808 1110.51 607.683 1110.54H607.937C608.23 1110.51 608.777 1110.29 608.847 1109.5C608.847 1109.5 609.433 1107.97 611.289 1108.05C611.289 1108.05 613.078 1108.08 613.589 1109.8C613.589 1109.8 613.589 1110.93 614.281 1111.22C614.281 1111.22 615.191 1111.58 615.484 1110.58C615.484 1110.58 616.14 1108.87 618.324 1108.94C618.324 1108.94 620.988 1108.98 621.242 1111.47C621.242 1111.47 621.605 1114.06 620.402 1119.8C620.074 1124.25 621.097 1125.18 621.097 1125.18C626.964 1131.77 627.656 1136.26 627.586 1138.05V1138.57C627.437 1140 626.597 1146.79 622.226 1148.98C622.226 1148.98 620.148 1150.14 617.523 1149.11L615.191 1147.94C615.191 1147.94 612.714 1146.79 612.496 1148.39C612.273 1150.55 612.054 1154.59 613.222 1156.71C613.222 1156.71 613.734 1157.91 616.722 1157.62C616.722 1157.62 634.8 1154.88 647.777 1173.11C647.777 1173.11 651.129 1177.28 652.734 1179.78C653.062 1180.53 652.953 1181.05 652.113 1181.13C650.328 1181.2 646.683 1181.38 644.312 1181.84C641.578 1182.24 638.808 1182.91 637.496 1183.3C636.695 1183.52 636.843 1184.12 636.843 1184.12L637.207 1186.27C637.207 1186.27 637.132 1186.98 637.898 1186.76C639.683 1186.16 645.445 1184.41 654.265 1184.52C654.265 1184.52 669.793 1184.48 670.449 1193.63C670.449 1193.63 670.742 1197.7 665.343 1201.9C665.343 1201.9 664.761 1202.43 663.597 1203.18C664.214 1204.11 664.836 1205.49 665.343 1206.95C665.418 1206.98 665.418 1207.06 665.453 1207.1C666.293 1209.16 666.804 1211.09 667.132 1212.22C667.605 1214.3 668.918 1215.17 669.793 1215.21C670.668 1215.24 671.175 1213.72 671.175 1213.72C674.531 1205.64 688.746 1192.1 692.754 1188.4C692.976 1188.22 693.121 1187.91 693.703 1187.84C694.14 1187.76 694.796 1188.18 694.796 1188.18L707.187 1195.84C707.187 1195.84 707.882 1196.23 708.027 1196.66C708.211 1197.17 707.953 1197.51 707.843 1197.66C694.285 1222.7 688.597 1225.91 688.597 1225.91C688.597 1225.91 680.218 1234.98 670.156 1234.62C664.179 1234.45 655.722 1225.54 649.746 1218.38C647.414 1215.83 644.64 1212.58 643.109 1210.43C642.273 1210.51 641.289 1210.65 640.195 1210.72C639.902 1210.72 639.683 1210.91 639.722 1211.13C640.269 1215.57 644.64 1254.47 641.359 1288.95C641.359 1288.95 639.902 1319.67 634.984 1327.22C634.546 1328 633.636 1327.32 633.636 1327.32L603.418 1306.17C603.418 1306.17 603.089 1306 602.945 1305.6C602.105 1302.18 594.488 1271.94 590.769 1251.44C590.769 1251.44 583.918 1219.68 577.101 1203.14C577.101 1203.14 576.921 1202.63 576.629 1202.43C576.265 1202.18 575.679 1202.1 575.605 1202.07C573.566 1201.72 568.898 1200.76 564.16 1198.48C564.16 1198.48 559.421 1196.4 554.828 1192.32C554.828 1192.32 548.414 1187.18 548.632 1181.88C548.632 1181.88 548.488 1174.93 560.261 1175.82C560.445 1175.86 560.879 1175.86 561.101 1175.44C562.121 1174 565.472 1169.17 566.64 1168.28Z" fill="#731705"/>
<path d="M722.132 1180.38C722.132 1180.38 719.945 1181.27 717.504 1183.06C717.504 1183.06 716.007 1184.66 714.371 1183.06C711.562 1180.42 708.281 1177.1 706.605 1175.26C704.343 1172.87 704.968 1169.77 707.843 1166.68C707.843 1166.68 712.949 1161.64 716.593 1162.21C716.593 1162.21 718.414 1162.86 719.437 1163.47C719.437 1163.47 720.129 1163.81 722.496 1163.69C722.496 1163.69 725.777 1163.39 729.679 1167.06C729.679 1167.06 733.906 1171.76 731.172 1176.01C731.172 1176.01 729.898 1178.28 726.547 1179.38C724.394 1180.07 722.132 1180.38 722.132 1180.38Z" fill="#731705"/>
<path d="M572.726 1204.49C573.422 1204.64 573.711 1204.89 573.64 1205.57C573.054 1210.01 570.832 1215.35 570.832 1215.35C568.062 1223.41 555.23 1238.94 555.23 1238.94C550.238 1245.24 551.769 1254.06 551.769 1254.06C552.062 1261.37 550.82 1275.11 550.82 1275.11C549.801 1286.8 545.789 1296.13 544.551 1298.77C544.187 1299.73 542.91 1299.59 542.91 1299.59L531.574 1298.24C531.574 1298.24 530.883 1298.2 530.59 1297.91C530.265 1297.66 530.191 1297.05 530.156 1296.91C529.461 1290.44 529.281 1272.3 529.281 1272.3C529.683 1260.99 538.027 1242.29 538.027 1242.29C540.469 1237.11 540.836 1231.1 540.836 1231.1C540.761 1227.6 542.949 1212.89 542.949 1212.89C544.66 1202.43 548.707 1196.31 550.312 1194.27C550.711 1193.7 551.258 1193.66 551.769 1194.16C554.539 1196.51 558.039 1198.77 561.976 1200.68C565.621 1202.43 569.301 1203.71 572.726 1204.49Z" fill="#731705"/>
<path d="M540.398 1304.54C540.543 1305.18 541.234 1305.22 541.234 1305.22L542.074 1305.35C543.058 1305.46 543.531 1306.2 543.605 1308.48C543.75 1310.8 543.058 1322.48 537.554 1325.83C537.554 1325.83 534.492 1328.37 530.883 1328.22C530.883 1328.22 526.328 1328.15 522.426 1323.06C522.426 1323.06 519.547 1320.6 522.246 1316.08C522.246 1316.08 523.41 1314.04 525.672 1312.69C529.754 1310.23 528.879 1306.35 528.879 1306.35C528.879 1306.35 528.621 1304.75 531.867 1304.44C532.668 1304.32 532.961 1303.93 533.035 1303.47C533.508 1301.83 534.566 1300.86 536.461 1300.9C538.574 1301.01 540.398 1302.58 540.398 1304.4V1304.54Z" fill="#731705"/>
<path d="M597.367 1313.33L627.179 1334.12C628.312 1335.16 628.715 1335.35 628.019 1338.33C627.437 1341.03 628.715 1349.73 631.883 1356.1C635.093 1362.52 640.742 1372.56 646.902 1391.11C651.496 1404.85 653.972 1413.91 654.484 1422.77C654.484 1422.77 654.957 1424.25 654.265 1426.27C654.265 1426.27 653.425 1426.83 654.265 1428.58C654.265 1428.58 656.234 1432.88 659.476 1441.54C659.476 1441.58 659.769 1442.14 659.511 1442.39C659.332 1442.62 658.711 1442.47 658.711 1442.47L638.738 1438.28C638.738 1438.28 638.445 1438.24 638.117 1437.95C637.824 1437.73 637.679 1437.44 637.679 1437.31C637.277 1435.78 636.511 1434.21 635.164 1432.64C635.164 1432.64 626.054 1422.68 623.136 1418.25C623.136 1418.25 615.117 1409.25 608.375 1387.91C608.375 1387.91 597.914 1360.53 586.285 1357.07C574.656 1353.57 566.785 1346.54 572.289 1332.89C572.289 1332.89 576.48 1319.56 588.437 1314.41C588.437 1314.41 594.633 1311.41 597.367 1313.33Z" fill="#731705"/>
<path d="M579.836 1435.18C580.273 1430.22 577.175 1421.57 577.175 1421.57C577.175 1421.57 574.402 1413.09 574.441 1402.16C574.515 1391.4 582.754 1366.36 584.972 1359.91C585.011 1359.8 585.047 1359.6 585.3 1359.49C585.593 1359.35 585.886 1359.42 586.031 1359.49C596.234 1363.72 605.461 1387.98 607.172 1392.61C607.465 1393.43 607.316 1393.92 607.246 1394.18C604.949 1405.58 598.968 1421.98 598.968 1421.98C596.308 1431.19 597.914 1436.84 597.914 1436.84C597.984 1436.95 598.058 1437.31 598.277 1437.87C598.351 1438.13 597.66 1438.52 597.66 1438.52L580.453 1435.98C580.453 1435.98 580.164 1435.95 580.019 1435.78C579.836 1435.6 579.836 1435.27 579.836 1435.18Z" fill="#731705"/>
<path d="M781.91 1446.53C781.547 1447.46 781.328 1448.1 781 1449.07C780.965 1449.18 780.816 1449.59 780.926 1449.81C781.035 1450.02 781.398 1449.94 781.398 1449.94L805.019 1444.97C805.019 1444.97 805.601 1444.86 805.82 1444.64C806.113 1444.29 805.785 1443.78 805.676 1443.47C805.422 1442.72 805.422 1442.58 805.308 1441.83C805.308 1441.69 805.238 1441.34 804.801 1441.19C804.437 1441.05 803.89 1441.19 803.89 1441.19L782.929 1445.64C782.929 1445.64 782.566 1445.71 782.273 1445.97C781.984 1446.13 781.91 1446.43 781.91 1446.53Z" fill="white"/>
<path d="M863.629 1442.18C863.558 1441.27 863.484 1440.45 863.449 1439.66C863.449 1439.59 863.41 1439.41 863.301 1439.3C863.121 1439.19 862.754 1439.23 862.754 1439.23L844.164 1441.98C844.164 1441.98 843.801 1442.02 843.586 1442.18C843.254 1442.43 843.183 1442.73 843.183 1442.73L842.199 1445.53C842.199 1445.53 842.051 1445.79 842.199 1446C842.344 1446.13 842.707 1446.09 842.707 1446.09L863.121 1442.87C863.121 1442.87 863.375 1442.83 863.519 1442.69C863.668 1442.54 863.629 1442.21 863.629 1442.18Z" fill="white"/>
<path d="M732.191 1191.77C732.519 1192.36 732.847 1192.92 733.14 1193.45C733.215 1193.56 733.359 1193.77 733.652 1193.81C733.941 1193.85 734.234 1193.63 734.234 1193.63L746.371 1185.94C746.371 1185.94 746.773 1185.83 746.808 1185.34C746.847 1184.97 746.515 1184.66 746.371 1184.59C745.898 1184.08 745.316 1183.55 744.805 1182.95C744.66 1182.91 744.441 1182.7 744.074 1182.7C743.746 1182.7 743.418 1182.95 743.418 1182.95L732.449 1190.79C732.449 1190.79 732.191 1191 732.121 1191.24C732.047 1191.46 732.121 1191.68 732.191 1191.77Z" fill="white"/>
<path d="M729.496 1186.9C729.859 1187.43 729.898 1187.65 730.226 1188.25C730.301 1188.36 730.371 1188.51 730.664 1188.54C731.027 1188.54 731.246 1188.36 731.246 1188.36L741.379 1180.42C741.379 1180.42 741.742 1180.16 741.816 1180C741.926 1179.71 741.707 1179.52 741.672 1179.45C741.015 1178.7 740.469 1177.99 740.066 1177.39C739.992 1177.36 739.847 1177.01 739.484 1177.06C739.117 1177.1 738.863 1177.39 738.863 1177.39L729.715 1185.87C729.715 1185.87 729.422 1186.12 729.386 1186.43C729.386 1186.65 729.461 1186.83 729.496 1186.9Z" fill="white"/>
<path d="M811.761 1332.5C812.601 1333.34 812.746 1333.22 813.039 1333.18C813.402 1333.18 813.695 1332.92 813.695 1332.92L844.093 1311.65C844.093 1311.65 844.422 1311.41 844.492 1311.2C844.605 1310.98 844.386 1310.7 844.312 1310.63C843.726 1309.98 843.109 1309.27 842.707 1308.66C842.636 1308.55 842.488 1308.28 842.125 1308.32C841.797 1308.37 840.812 1309.1 840.812 1309.1L810.851 1329.46C810.851 1329.46 810.304 1329.72 810.34 1330.5C810.379 1331.06 811.14 1331.64 811.761 1332.5Z" fill="white"/>
<path d="M661.336 1446.53C661.699 1447.46 661.918 1448.1 662.32 1449.07C662.32 1449.18 662.465 1449.59 662.355 1449.81C662.211 1450.02 661.847 1449.94 661.847 1449.94L638.301 1444.97C638.301 1444.97 637.679 1444.86 637.461 1444.64C637.133 1444.29 637.461 1443.78 637.57 1443.47C637.863 1442.72 637.863 1442.58 637.972 1441.83C637.972 1441.69 638.043 1441.34 638.445 1441.19C638.808 1441.05 639.355 1441.19 639.355 1441.19L660.316 1445.64C660.316 1445.64 660.679 1445.71 661.008 1445.97C661.226 1446.13 661.301 1446.43 661.336 1446.53Z" fill="white"/>
<path d="M579.617 1442.18C579.687 1441.27 579.761 1440.45 579.761 1439.66C579.836 1439.59 579.836 1439.41 580.019 1439.3C580.164 1439.19 580.492 1439.23 580.492 1439.23L599.043 1441.98C599.043 1441.98 599.445 1442.02 599.664 1442.18C599.953 1442.43 600.027 1442.73 600.027 1442.73L601.121 1445.53C601.121 1445.53 601.195 1445.79 601.051 1446C600.867 1446.13 600.574 1446.09 600.574 1446.09L580.125 1442.87C580.125 1442.87 579.836 1442.83 579.761 1442.69C579.617 1442.54 579.617 1442.21 579.617 1442.18Z" fill="white"/>
<path d="M711.054 1191.77C710.761 1192.36 710.469 1192.92 710.105 1193.45C710.105 1193.56 709.886 1193.77 709.633 1193.81C709.34 1193.85 709.011 1193.63 709.011 1193.63L696.91 1185.94C696.91 1185.94 696.472 1185.83 696.472 1185.34C696.398 1184.97 696.726 1184.66 696.91 1184.59C697.422 1184.08 697.929 1183.55 698.441 1182.95C698.551 1182.91 698.804 1182.7 699.172 1182.7C699.535 1182.7 699.824 1182.95 699.824 1182.95L710.836 1190.79C710.836 1190.79 711.054 1191 711.125 1191.24C711.199 1191.46 711.125 1191.68 711.054 1191.77Z" fill="white"/>
<path d="M713.75 1186.9C713.387 1187.43 713.387 1187.65 713.019 1188.25C712.949 1188.36 712.84 1188.51 712.582 1188.54C712.254 1188.54 712 1188.36 712 1188.36L701.828 1180.42C701.828 1180.42 701.504 1180.16 701.465 1180C701.355 1179.71 701.539 1179.52 701.609 1179.45C702.23 1178.7 702.777 1177.99 703.215 1177.39C703.254 1177.36 703.433 1177.01 703.762 1177.06C704.129 1177.1 704.418 1177.39 704.418 1177.39L713.531 1185.87C713.531 1185.87 713.859 1186.12 713.894 1186.43C713.894 1186.65 713.785 1186.83 713.75 1186.9Z" fill="white"/>
<path d="M631.484 1332.5C630.644 1333.34 630.5 1333.22 630.207 1333.18C629.879 1333.18 629.551 1332.92 629.551 1332.92L599.152 1311.65C599.152 1311.65 598.859 1311.41 598.754 1311.2C598.679 1310.98 598.898 1310.7 598.969 1310.63C599.59 1309.98 600.136 1309.27 600.535 1308.66C600.609 1308.55 600.758 1308.28 601.121 1308.32C601.484 1308.37 602.433 1309.1 602.433 1309.1L632.394 1329.46C632.394 1329.46 632.941 1329.72 632.906 1330.5C632.867 1331.06 632.176 1331.64 631.484 1332.5Z" fill="white"/>
<path d="M805.312 1191.95C804.328 1191.64 803.269 1191.35 802.176 1191.06C792.48 1188.54 781.398 1188.29 779.941 1192.7C778.773 1196.27 786.43 1201.21 796.125 1203.67C798.824 1204.35 801.484 1204.86 803.926 1205.16C804.219 1205.24 804.508 1205.06 804.547 1204.71C804.726 1202.54 805.531 1194.7 805.746 1192.66C805.82 1192.14 805.492 1191.99 805.312 1191.95Z" fill="white"/>
<path d="M871.101 1196.06C873.472 1195.45 874.527 1195.12 877.117 1193.85C884.699 1190.2 891.551 1184.15 889.617 1181.06C887.761 1177.92 872.886 1178.78 870.191 1195.27C870.047 1195.84 870.554 1196.23 871.101 1196.06Z" fill="white"/>
<path d="M638.519 1191.95C639.504 1191.64 640.558 1191.35 641.578 1191.06C651.347 1188.54 662.504 1188.29 663.886 1192.7C665.054 1196.27 657.472 1201.21 647.773 1203.67C645.007 1204.35 642.382 1204.86 639.902 1205.16C639.609 1205.24 639.32 1205.06 639.285 1204.71C639.101 1202.54 638.3 1194.7 638.082 1192.66C638.007 1192.14 638.371 1191.99 638.519 1191.95Z" fill="white"/>
<path d="M572.726 1196.06C570.355 1195.45 569.301 1195.12 566.785 1193.85C559.203 1190.2 552.312 1184.15 554.211 1181.06C556.07 1177.92 570.976 1178.78 573.64 1195.27C573.82 1195.84 573.347 1196.23 572.726 1196.06Z" fill="white"/>
<path d="M499.281 336.172C564.929 284.602 637.062 254.441 722.789 254.441C808.629 254.441 880.652 284.602 946.297 336.172C877.082 299.711 801.121 285.781 717.906 285.781C634.617 285.781 568.535 299.711 499.281 336.172Z" fill="#F4811F"/>
<path d="M649.816 466.769C638.226 467.808 625.359 466.769 625.359 466.769C625.359 466.769 634 456.879 636.914 453.629C645.078 444.519 657.035 439.34 670.23 437.519C694.941 434.078 701.504 442.699 701.504 442.699C701.504 442.699 688.164 456.179 685.246 471.929C685.246 471.929 662.867 465.59 649.816 466.769Z" fill="#731705"/>
<path d="M658.199 451.922C658.199 446.961 664.398 442.879 672.051 442.879C679.668 442.879 685.902 446.961 685.902 451.922C685.902 456.949 679.668 461.031 672.051 461.031C664.398 461.031 658.199 456.949 658.199 451.922Z" fill="white"/>
<path d="M677.519 451.629C677.519 448.641 675.113 446.219 672.125 446.219C669.136 446.219 666.73 448.641 666.73 451.629C666.73 454.621 669.136 457.012 672.125 457.012C675.113 457.012 677.519 454.621 677.519 451.629Z" fill="#221F1F"/>
</svg>
